<svg xmlns="http://www.w3.org/2000/svg" width="209" height="217" viewBox="0 0 209 217">
    <defs>
        <linearGradient id="a" x1="85.022%" x2="8.718%" y1="28.054%" y2="90.574%">
            <stop offset="0%" stop-color="#F9C762"/>
            <stop offset="100%" stop-color="#F19533"/>
        </linearGradient>
    </defs>
    <g fill="none" fill-rule="evenodd">
        <ellipse cx="97.5" cy="209.829" fill="#CBE7FC" fill-rule="nonzero" opacity=".3" rx="87.5" ry="6.829"/>
        <path fill="#0461FB" d="M62.337 17.587a4.756 4.756 0 0 0-4.75 4.75c0 2.62 2.132 4.75 4.75 4.75 2.62 0 4.75-2.13 4.75-4.75a4.756 4.756 0 0 0-4.75-4.75m0 11.088A6.344 6.344 0 0 1 56 22.337 6.345 6.345 0 0 1 62.337 16a6.345 6.345 0 0 1 6.338 6.337 6.344 6.344 0 0 1-6.338 6.338"/>
        <g fill="#0461FB">
            <path d="M8.796 44.49L.44 35.942l1.135-1.11L9.93 43.38z"/>
            <path d="M1.406 44.358L.312 43.207l8.655-8.242 1.093 1.15z"/>
        </g>
        <g fill="#0461FB">
            <path d="M207.796 10.49l-8.355-8.547 1.135-1.11 8.355 8.547z"/>
            <path d="M200.406 10.358l-1.094-1.151 8.655-8.242 1.093 1.15z"/>
        </g>
        <path fill="#F7B594" fill-rule="nonzero" d="M143.522 73.893H90.023L61.962 110.52l15.872 35.7 4.118 1.166h21.972l23.453-4.83 18-26.83 4.807-35.378z"/>
        <path fill="#F7B594" d="M182.672 101.333c-.137-4.993-4.358-8.909-9.354-8.909h-10.754c5.149 0 9.306-4.244 9.163-9.424-.137-4.993-4.358-8.909-9.354-8.909h-19.41c3.393 15.155 1.475 31.183-6.636 45.235-7.958 13.787-20.549 23.36-35.018 28.1h50.492c4.996 0 9.217-3.917 9.354-8.91.143-5.18-4.015-9.424-9.163-9.424h10.381c4.996 0 9.217-3.916 9.354-8.91.143-5.18-4.015-9.424-9.163-9.424h10.945a9.166 9.166 0 0 0 9.163-9.425z"/>
        <g fill="#F0A479">
            <path d="M144.43 92.422h18.243a9.166 9.166 0 0 0 9.019-10.002h-27.413c.31 3.327.363 6.67.152 10.002zM140.424 110.755h33.194c5.098-.06 9.196-4.277 9.054-9.422a8.782 8.782 0 0 0-.037-.579h-39.299a61.171 61.171 0 0 1-2.912 10.001zM136.327 119.326a61.338 61.338 0 0 1-6.992 9.764h33.15c4.947-.059 9.107-3.952 9.242-8.908.01-.369-.004-.734-.037-1.095h-35.23c-.044.08-.087.16-.133.24zM161.155 138.516a9.48 9.48 0 0 0-.036-1.092h-40.71c-5.663 4.326-12.031 7.649-18.82 9.906a7.85 7.85 0 0 0 1.22.096H151.8c4.994 0 9.217-3.917 9.354-8.91z"/>
        </g>
        <path fill="#F0A479" fill-rule="nonzero" d="M73.738 137.563h50.578v9.727H73.738zM120.987 119.082h33.806v10.05h-41.176c5.622-3.241 8.079-6.592 7.37-10.05zM124.637 100.926h44.746v9.726h-50.578c3.888-1.996 5.832-5.238 5.832-9.726zM127.883 82.445h33.394v10.051h-27.896c-.31-4.691-2.143-8.042-5.498-10.05z"/>
        <path fill="#F7B594" d="M81.462 146.403c-8.991-18.948-9.131-41.08 1.633-59.728C88.83 76.739 96.97 68.99 106.487 63.66l7.488-6.974c10.603-7.575 1.33-21.11-8.366-16.64L64.295 58.1c-.067.03-5.536 2.612-9.523 6.638h-.002L49 70.566c-3.02 3.048-8.12 3.601-14.237 3.654v-.001H22.948A5.95 5.95 0 0 0 17 80.167v48.203a5.948 5.948 0 0 0 5.948 5.947h11.815v-.002l4.648-.003c13.273-.008 12.06 13.13 28.566 13.113h14.081a7.085 7.085 0 0 1-.596-1.022z"/>
        <path fill="#F0A479" d="M77.939 137.424h-9.962c-16.506.016-15.293-13.121-28.566-13.112l-4.648.002v.003H22.948A5.948 5.948 0 0 1 17 118.368v10.001a5.948 5.948 0 0 0 5.948 5.948h11.815v-.002l4.648-.003c13.273-.008 12.06 13.13 28.566 13.113h14.081a7.086 7.086 0 0 1-.596-1.022 69.678 69.678 0 0 1-3.523-8.979z"/>
        <g transform="translate(87.355 84.39)">
            <path fill="#0461FB" fill-rule="nonzero" d="M34.459 6.659c.028-2.754-2.371-4.878-5.125-4.84-2.342.034-4.603.41-6.735 1.08-.55.173-1.135-.009-1.542-.416l-.007-.007A8.33 8.33 0 0 0 15.233.022c-.622-.009-1.208.4-1.298 1.015a1.198 1.198 0 0 0 1.184 1.38c.588 0 1.316.236 2 .536.992.434 1.095 1.8.175 2.368-.25.155-.498.314-.741.478-.85.57-1.877.79-2.886.617a8.327 8.327 0 0 0-7.232 2.265c-.456.445-.566 1.172-.168 1.669.482.6 1.384.603 1.869.008.51-.628 1.14-1.154 1.921-1.367 5.102-1.397.93 1.813-.272 3.676a1.235 1.235 0 0 1-1.143.552 8.327 8.327 0 0 0-6.397 2.356c-.445.435-.57 1.138-.2 1.637a1.198 1.198 0 0 0 1.813.137c.527-.526 1.475-.938 2.35-1.23a.981.981 0 0 1 1.23 1.266c-.206.563-.391 1.135-.554 1.716-.226.806-.845 1.422-1.64 1.684l-.013.004a8.33 8.33 0 0 0-4.808 4.123c-.28.545-.166 1.245.336 1.596.615.43 1.441.204 1.764-.442.739-1.476 3.482-1.537 3.483-.769.001 1.64.494 3.255 1.893 4.109 2.72 1.66 5.512.744 6.86-1.234.254-.372.458-1.136.603-1.856a1.384 1.384 0 0 1 2.059-.914 5.993 5.993 0 0 1 2.96 5.122c.004.612.45 1.164 1.058 1.233a1.198 1.198 0 0 0 1.338-1.19c0-4.081-2.934-7.486-6.801-8.23a.028.028 0 0 1-.022-.033l.007-.03c.53-2.273 2.761-3.228 4.808-2.108 1.354.74 2.424 2 2.882 3.596.168.584.75.99 1.35.891a1.198 1.198 0 0 0 .966-1.507 8.365 8.365 0 0 0-5.202-5.598c-1.059-.386-1.338-1.785-.5-2.538l.024-.021c.2-.18.45-.307.715-.35 3.022-.49 5.976 1.402 6.753 4.413.154.597.732 1.03 1.342.942a1.198 1.198 0 0 0 .994-1.477 8.328 8.328 0 0 0-3.22-4.751c-.87-.627-.558-2.006.499-2.18a14.103 14.103 0 0 1 2.292-.187h.006c.429 0 .847.163 1.111.5a5.96 5.96 0 0 1 1.279 3.65c.004.61.45 1.164 1.058 1.233a1.198 1.198 0 0 0 1.338-1.19c0-1.466-.38-2.843-1.045-4.041-.364-.656-.361-1.477.09-2.076a4.731 4.731 0 0 0 .958-2.816z"/>
            <g fill="#F29C39" transform="translate(9.26 5.99)">
                <circle cx="1.839" cy="20.985" r="1.797"/>
                <circle cx="3.037" cy="14.396" r="1.797"/>
                <circle cx="6.032" cy="8.407" r="1.797"/>
                <circle cx="11.423" cy="4.214" r="1.797"/>
                <circle cx="18.011" cy="1.818" r="1.797"/>
            </g>
            <g fill="url(#a)" fill-rule="nonzero" transform="translate(8.66 5.39)">
                <circle cx="1.839" cy="20.985" r="1.797"/>
                <circle cx="3.037" cy="14.396" r="1.797"/>
                <circle cx="6.032" cy="8.407" r="1.797"/>
                <circle cx="11.423" cy="4.214" r="1.797"/>
                <circle cx="18.011" cy="1.818" r="1.797"/>
            </g>
            <circle cx="10.2" cy="26.077" r="1" fill="#FFF"/>
            <circle cx="11.997" cy="18.889" r="1" fill="#FFF"/>
            <circle cx="13.794" cy="14.097" r="1" fill="#FFF"/>
            <circle cx="19.185" cy="9.305" r="1" fill="#FFF"/>
            <circle cx="26.971" cy="6.31" r="1" fill="#FFF"/>
        </g>
        <g transform="translate(32.887 59.102)">
            <circle cx="73.296" cy="38.572" r="33.232" fill="#90C5FF" opacity=".3"/>
            <path fill="url(#a)" fill-rule="nonzero" d="M15.832 67.287h14.77v42.73h-14.77z" transform="rotate(-135 23.217 88.652)"/>
            <path fill="url(#a)" fill-rule="nonzero" d="M32.365 70.104h14.77v4.03h-14.77z" transform="rotate(-135 39.75 72.12)"/>
            <path fill="url(#a)" fill-rule="nonzero" d="M-.701 103.17h14.77v4.03H-.701z" transform="rotate(-135 6.684 105.185)"/>
            <g fill="#FFF" opacity=".2">
                <path d="M60.426 95.818l-7.322-2.846L89.2 0l7.322 2.841zM70.906 104.68l-7.324-2.847L99.678 8.86l7.32 2.837z"/>
            </g>
            <path fill="#FFD581" fill-rule="nonzero" d="M99.501 12.367c-7-7-16.306-10.854-26.205-10.854-9.899 0-19.205 3.855-26.205 10.854-7 7-10.854 16.307-10.854 26.205 0 8.6 2.91 16.751 8.263 23.332l-6.058 6.058 5.465 5.464 6.057-6.057c6.582 5.352 14.733 8.263 23.332 8.263 9.899 0 19.205-3.855 26.205-10.854 7-7 10.854-16.307 10.854-26.206 0-9.898-3.854-19.205-10.854-26.205zM94.09 59.365c-5.554 5.554-12.939 8.613-20.793 8.613-7.854 0-15.239-3.059-20.793-8.613-5.553-5.554-8.612-12.938-8.612-20.793 0-7.854 3.058-15.238 8.612-20.792 5.554-5.554 12.939-8.613 20.793-8.613 7.854 0 15.239 3.059 20.793 8.613 5.554 5.554 8.612 12.938 8.612 20.792 0 7.855-3.058 15.24-8.612 20.793z"/>
            <path fill="url(#a)" fill-rule="nonzero" d="M73.296 75.632c9.899 0 19.205-3.855 26.205-10.854 7-7 10.854-16.307 10.854-26.206 0-9.898-3.854-19.205-10.854-26.205L94.09 17.78c5.554 5.554 8.612 12.938 8.612 20.792 0 7.855-3.058 15.24-8.612 20.793-5.554 5.554-12.939 8.613-20.793 8.613-7.854 0-15.239-3.059-20.793-8.613l-5.017 5.018-.395.395-5.917 5.916-1.425 1.425-34.49 34.49 5.222 5.223 2.85-2.85 30.215-30.216 2.85-2.85-2.49-2.49 6.058-6.057c6.582 5.352 14.733 8.263 23.332 8.263z"/>
        </g>
        <path fill="#0461FB" d="M153.77 36.587c-1.204 0-2.183.98-2.183 2.182 0 1.205.98 2.184 2.182 2.184 1.203 0 2.183-.979 2.183-2.184 0-1.203-.98-2.182-2.183-2.182m0 5.953c-2.079 0-3.769-1.69-3.769-3.77s1.69-3.77 3.77-3.77c2.079 0 3.769 1.69 3.769 3.77s-1.69 3.77-3.77 3.77"/>
    </g>
</svg>
