<svg xmlns="http://www.w3.org/2000/svg" xmlns:xlink="http://www.w3.org/1999/xlink" width="838" height="644" viewBox="0 0 838 644">
    <defs>
        <path id="a" d="M0 .842h837.388v1.811H0z"/>
        <linearGradient id="c" x1="100%" x2="0%" y1="50%" y2="50%">
            <stop offset="0%" stop-color="#69BEFC"/>
            <stop offset="100%" stop-color="#3CA7FB"/>
        </linearGradient>
        <linearGradient id="d" x1="85.022%" x2="8.718%" y1="28.054%" y2="90.574%">
            <stop offset="0%" stop-color="#F9C762"/>
            <stop offset="100%" stop-color="#F19533"/>
        </linearGradient>
    </defs>
    <g fill="none" fill-rule="evenodd">
        <g transform="translate(0 637.267)">
            <mask id="b" fill="#fff">
                <use xlink:href="#a"/>
            </mask>
            <path fill="#3593DD" d="M836.476 2.653H.912A.908.908 0 0 1 0 1.748C0 1.247.407.842.912.842h835.564a.91.91 0 0 1 .912.906c0 .5-.409.905-.912.905" mask="url(#b)" opacity=".3"/>
        </g>
        <path fill="#FFF" d="M259 614.406h327.472V37H259z"/>
        <g transform="translate(335 170)">
            <path fill="url(#c)" d="M110.421 25.427V92.25H8.182V25.427a8.519 8.519 0 0 1 8.178-8.834h85.883a7.101 7.101 0 0 1 1.881.245 7.838 7.838 0 0 1 3.374 1.8 9.134 9.134 0 0 1 2.924 6.789z" transform="translate(28 16)"/>
            <path fill="#95D1FF" d="M132.123 32.838c-22.268 1.39-95.942 10.572-95.942 71.323V41.427a8.519 8.519 0 0 1 8.178-8.834h85.883a7.101 7.101 0 0 1 1.881.245z"/>
            <path fill="#E94B7D" d="M126.152 62.795a11.843 11.843 0 0 1-3.272 8.444l-.02.021-1.901 6.135a9.78 9.78 0 0 1-4.05 5.296l-6.502 4.274a11.44 11.44 0 0 0-2.33 2.105l-2.414 2.986a10.423 10.423 0 0 1-3.026 2.536 11.426 11.426 0 0 1-5.48 1.39 11.13 11.13 0 0 1-6.155-1.84l-3.7-2.433-3.702 2.433a11.13 11.13 0 0 1-6.155 1.84 11.57 11.57 0 0 1-5.5-1.39 10.612 10.612 0 0 1-3.006-2.536l-2.434-2.986a10.472 10.472 0 0 0-2.33-2.105l-6.483-4.274a9.78 9.78 0 0 1-4.049-5.296l-1.9-6.135-.022-.02a11.847 11.847 0 0 1-3.272-8.445 12.108 12.108 0 0 1 2.618-7.73 12.831 12.831 0 0 1-1.063-5.172 10.582 10.582 0 0 1 6.338-10.368 13.16 13.16 0 0 1-.143-1.8 9.874 9.874 0 0 1 6.319-9.672c-.066-.357-.1-.72-.102-1.084a8.219 8.219 0 0 1 8.527-7.872 8.068 8.068 0 0 1 2.126.266 7.981 7.981 0 0 1 6.42-3.129 7.635 7.635 0 0 1 7.608 5.746c.1.464.147.937.143 1.412h.122a6.385 6.385 0 0 1 .144-1.412 7.633 7.633 0 0 1 7.606-5.746 7.981 7.981 0 0 1 6.42 3.13 8.073 8.073 0 0 1 2.127-.267 8.218 8.218 0 0 1 8.527 7.872 6.134 6.134 0 0 1-.102 1.084 9.874 9.874 0 0 1 6.318 9.672 13.16 13.16 0 0 1-.143 1.8 10.58 10.58 0 0 1 6.339 10.368 12.831 12.831 0 0 1-1.063 5.172 12.108 12.108 0 0 1 2.617 7.73z"/>
            <path fill="url(#c)" d="M75.659 112.7l-4.089-12.27-12.269-6.134-12.27 6.134-4.088 12.27z" transform="translate(28 16)"/>
            <path fill="#F879A1" d="M87.301 23.392v68.317L83.6 94.142a11.13 11.13 0 0 1-6.155 1.84 11.57 11.57 0 0 1-5.5-1.39 10.612 10.612 0 0 1-3.006-2.536l-2.434-2.986a10.472 10.472 0 0 0-2.33-2.105l-6.483-4.274a9.78 9.78 0 0 1-4.049-5.296l-1.9-6.135-.022-.02a11.847 11.847 0 0 1-3.272-8.445 12.108 12.108 0 0 1 2.618-7.73 12.831 12.831 0 0 1-1.063-5.172 10.582 10.582 0 0 1 6.338-10.368 13.16 13.16 0 0 1-.143-1.8 9.874 9.874 0 0 1 6.319-9.672c-.066-.357-.1-.72-.102-1.084a8.219 8.219 0 0 1 8.527-7.872 8.068 8.068 0 0 1 2.126.266 7.981 7.981 0 0 1 6.42-3.129 7.635 7.635 0 0 1 7.608 5.746c.1.464.147.937.143 1.412h.061z"/>
            <path fill="#0461FB" fill-rule="nonzero" d="M138.421 104.161v3.436a8.518 8.518 0 0 1-8.179 8.833H44.36a8.518 8.518 0 0 1-8.178-8.833v-3.436h102.24zM62.763 126.654h49.076a4.09 4.09 0 0 1 4.09 4.09v2.044c0 1.13-.916 2.045-2.045 2.045H60.718a2.044 2.044 0 0 1-2.044-2.045v-2.045a4.089 4.089 0 0 1 4.089-4.089z"/>
            <path fill="#E94B7D" d="M78.552 89.857a6.203 6.203 0 0 1-6.133-4.35c-.85-2.44-5.52-3.86-7.09-4.166a2.046 2.046 0 0 1 .771-4.016c.856.162 8.404 1.742 10.181 6.834a2.4 2.4 0 0 0 3.223 1.47 2.044 2.044 0 0 1 1.224 3.902 7.246 7.246 0 0 1-2.176.326z"/>
            <path fill="#F879A1" d="M96.05 89.847a7.236 7.236 0 0 1-2.175-.326 2.046 2.046 0 1 1 1.241-3.896 2.395 2.395 0 0 0 3.204-1.477c1.777-5.092 9.325-6.67 10.182-6.834a2.046 2.046 0 0 1 .77 4.016c-1.57.306-6.238 1.726-7.09 4.166a6.204 6.204 0 0 1-6.132 4.351z"/>
            <path fill="#E94B7D" d="M66.475 73.524a8.36 8.36 0 0 1-7.688-5.495 2.045 2.045 0 0 1 3.857-1.362 4.206 4.206 0 0 0 3.83 2.768 2.045 2.045 0 0 1 0 4.09z"/>
            <path fill="#F879A1" d="M108.128 73.524a2.045 2.045 0 1 1 0-4.09 4.248 4.248 0 0 0 3.825-2.754 2.044 2.044 0 1 1 3.862 1.348 8.36 8.36 0 0 1-7.687 5.496z"/>
            <path fill="#E94B7D" d="M83.211 71.444a2.044 2.044 0 0 1-2.045-2.044c0-2.52-.267-2.56-3.543-3.041a29.613 29.613 0 0 1-5.282-1.154 10.963 10.963 0 0 1-7.533-10.119 2.045 2.045 0 0 1 4.09-.013 6.885 6.885 0 0 0 4.737 6.252 25.76 25.76 0 0 0 4.584.987c3.298.486 7.037 1.036 7.037 7.088 0 1.13-.915 2.044-2.045 2.044zM83.211 36.683a2.045 2.045 0 0 1-2.045-2.045c0-1.931-4.055-2.045-4.096-2.045a2.045 2.045 0 0 1 .007-4.09c2.828 0 8.18 1.282 8.18 6.135 0 1.13-.916 2.045-2.046 2.045z"/>
            <path fill="#F879A1" d="M91.39 71.444a2.044 2.044 0 0 1-2.045-2.044c0-6.052 3.74-6.602 7.038-7.088 1.555-.189 3.09-.519 4.585-.987a6.884 6.884 0 0 0 4.736-6.254 2.052 2.052 0 0 1 2.045-2.021h.016a2.038 2.038 0 0 1 2.029 2.036 10.963 10.963 0 0 1-7.532 10.12c-1.722.544-3.491.93-5.283 1.153-3.276.481-3.544.521-3.544 3.04 0 1.13-.916 2.045-2.045 2.045zM91.39 36.683a2.045 2.045 0 0 1-2.045-2.045c0-4.853 5.352-6.135 8.18-6.135a2.046 2.046 0 0 1 .005 4.09c-.077 0-4.095.123-4.095 2.045 0 1.13-.916 2.045-2.045 2.045z"/>
            <path fill="url(#d)" fill-rule="nonzero" d="M44.988 32.951H18.404a4.094 4.094 0 0 1-4.089-4.09V6.37H8.181a2.045 2.045 0 0 1 0-4.09h8.178c1.13 0 2.045.916 2.045 2.045v24.538h26.584a2.044 2.044 0 0 1 0 4.09z" transform="translate(28 16)"/>
            <path fill="url(#d)" fill-rule="nonzero" d="M53.166 30.907a4.09 4.09 0 1 1-8.18-.001 4.09 4.09 0 0 1 8.18 0zM8.18 4.324a4.09 4.09 0 1 1-8.18 0 4.09 4.09 0 0 1 8.18 0zM100.197 32.951H73.615a2.045 2.045 0 0 1 0-4.09h26.582V4.325c0-1.129.916-2.045 2.045-2.045h8.179a2.045 2.045 0 0 1 0 4.09h-6.134v22.493a4.095 4.095 0 0 1-4.09 4.09z" transform="translate(28 16)"/>
            <g fill="url(#d)" fill-rule="nonzero" transform="translate(93.322 16.232)">
                <path d="M8.293 30.675a4.09 4.09 0 1 1-8.18 0 4.09 4.09 0 0 1 8.18 0zM53.279 4.093a4.09 4.09 0 1 1-8.18-.001 4.09 4.09 0 0 1 8.18 0z"/>
            </g>
            <path fill="#0461FB" d="M55.706 1.78a4.25 4.25 0 0 0-4.245 4.245 4.25 4.25 0 0 0 4.245 4.245 4.25 4.25 0 0 0 4.245-4.245 4.25 4.25 0 0 0-4.245-4.245m0 9.908a5.67 5.67 0 0 1-5.663-5.663A5.67 5.67 0 0 1 55.706.362a5.67 5.67 0 0 1 5.663 5.663 5.67 5.67 0 0 1-5.663 5.663"/>
            <g fill="#0461FB">
                <path d="M7.86 25.82L.394 18.183l1.014-.991 7.466 7.637z"/>
                <path d="M1.256 25.703L.28 24.674l7.734-7.365.977 1.029z"/>
            </g>
            <g fill="#0461FB">
                <path d="M176.945 14.374l-7.466-7.638 1.014-.991 7.466 7.637z"/>
                <path d="M170.341 14.256l-.977-1.028 7.734-7.366.977 1.029z"/>
            </g>
            <path fill="#0461FB" d="M164.22 54.503c-1.076 0-1.95.875-1.95 1.95 0 1.077.874 1.952 1.95 1.952 1.075 0 1.95-.875 1.95-1.951s-.875-1.95-1.95-1.95m0 5.32a3.372 3.372 0 0 1-3.369-3.37 3.371 3.371 0 0 1 3.368-3.369 3.371 3.371 0 0 1 3.369 3.369c0 1.859-1.51 3.37-3.369 3.37"/>
            <ellipse cx="87.745" cy="153.103" fill="#CBE7FC" fill-rule="nonzero" opacity=".5" rx="56.745" ry="6.103"/>
        </g>
        <path fill="url(#c)" d="M317.6 57.071H9.872C4.42 57.071 0 53.521 0 49.144V0h327.472v49.144c0 4.378-4.418 7.927-9.872 7.927" transform="translate(259 583)"/>
        <path fill="#3593DD" d="M259.321 599.42h327.473v-1.618H259.32z"/>
        <g transform="translate(291 347)">
            <rect width="269" height="57" fill="url(#d)" fill-rule="nonzero" rx="7"/>
            <path fill="#FFF" d="M67.39 20.72c1.76 0 3.13.58 4.11 1.74.98 1.16 1.47 2.767 1.47 4.82 0 1.053-.133 2.053-.4 3a8.662 8.662 0 0 1-1.17 2.55 5.519 5.519 0 0 1-2.02 1.79c-.833.44-1.776.66-2.83.66-1.2 0-2.253-.3-3.16-.9v-2.6c.88.6 1.827.9 2.84.9 1.147 0 2.047-.36 2.7-1.08.667-.733 1.04-1.64 1.12-2.72-.746.867-1.833 1.3-3.26 1.3-1.28 0-2.346-.407-3.2-1.22-.853-.813-1.28-1.913-1.28-3.3 0-1.453.48-2.64 1.44-3.56.974-.92 2.187-1.38 3.64-1.38zm.18 2.48c-.706 0-1.283.223-1.73.67-.446.447-.67 1.023-.67 1.73 0 .68.227 1.24.68 1.68.454.44 1.027.66 1.72.66a2.65 2.65 0 0 0 1.54-.5c.48-.333.82-.76 1.02-1.28-.04-.947-.286-1.677-.74-2.19-.453-.513-1.06-.77-1.82-.77zm11.354 12.08c-1.467 0-2.793-.333-3.98-1v-2.7a7.112 7.112 0 0 0 3.86 1.12c.907 0 1.65-.207 2.23-.62.58-.413.87-.987.87-1.72 0-.693-.283-1.253-.85-1.68-.567-.427-1.323-.64-2.27-.64-1.107 0-2.227.2-3.36.6l.92-7.64h7.48v2.48h-5.36l-.3 2.38c.413-.093.86-.14 1.34-.14 1.547 0 2.807.427 3.78 1.28 1 .853 1.5 1.973 1.5 3.36 0 1.533-.567 2.74-1.7 3.62-1.133.867-2.52 1.3-4.16 1.3zM90.697 35h-2.02l8.36-14h2.02l-8.36 14zm4.76-5.74c.653-.653 1.5-.98 2.54-.98s1.887.327 2.54.98c.667.667 1 1.48 1 2.44s-.333 1.773-1 2.44c-.653.653-1.5.98-2.54.98s-1.887-.327-2.54-.98c-.667-.667-1-1.48-1-2.44s.333-1.773 1-2.44zm1.38 3.6c.307.307.693.46 1.16.46.453 0 .833-.153 1.14-.46.307-.307.46-.693.46-1.16 0-.467-.153-.853-.46-1.16a1.548 1.548 0 0 0-1.14-.46c-.467 0-.853.153-1.16.46-.293.307-.44.693-.44 1.16 0 .467.147.853.44 1.16zm-9.68-11c.653-.653 1.5-.98 2.54-.98s1.887.327 2.54.98c.667.667 1 1.48 1 2.44s-.333 1.773-1 2.44c-.653.653-1.5.98-2.54.98s-1.887-.327-2.54-.98c-.667-.667-1-1.48-1-2.44s.333-1.773 1-2.44zm1.38 3.6c.307.307.693.46 1.16.46.453 0 .833-.153 1.14-.46.307-.307.46-.693.46-1.16 0-.467-.153-.853-.46-1.16a1.548 1.548 0 0 0-1.14-.46c-.467 0-.853.153-1.16.46-.293.307-.44.693-.44 1.16 0 .467.147.853.44 1.16zM111.444 35h-2.88V21h2.86l4.06 5.8 4.06-5.8h2.84v14h-2.84v-9.58l-3.22 4.5h-1.6l-3.28-4.5V35zm18.693.26c-1.56 0-2.874-.48-3.94-1.44-1.067-.96-1.6-2.233-1.6-3.82 0-1.48.48-2.72 1.44-3.72.96-1.013 2.213-1.52 3.76-1.52 1.44 0 2.593.513 3.46 1.54.866 1.027 1.3 2.273 1.3 3.74v.74h-7.16a2.32 2.32 0 0 0 1.11 1.54c.593.36 1.336.54 2.23.54 1.106 0 2.173-.293 3.2-.88v2.26c-.894.68-2.16 1.02-3.8 1.02zm-2.74-6.28h4.38c-.027-.573-.23-1.05-.61-1.43-.38-.38-.877-.57-1.49-.57-.627 0-1.147.183-1.56.55-.414.367-.654.85-.72 1.45zm11.913 6.28c-.827 0-1.477-.223-1.95-.67-.473-.447-.71-1.143-.71-2.09V21h2.82v10.76c0 .667.3 1 .9 1 .28 0 .52-.06.72-.18v2.32c-.48.24-1.073.36-1.78.36zm13.133-2.44c.24 0 .434-.04.58-.12v2.06c-.36.28-.866.42-1.52.42-1.133 0-1.886-.427-2.26-1.28-.88.907-2.026 1.36-3.44 1.36-1.093 0-1.98-.307-2.66-.92-.68-.613-1.02-1.42-1.02-2.42 0-1.067.387-1.88 1.16-2.44.774-.56 1.7-.84 2.78-.84 1.134 0 2.094.207 2.88.62v-.3c0-1.253-.88-1.88-2.64-1.88-1.08 0-2.086.28-3.02.84v-2.36c1.014-.533 2.247-.8 3.7-.8 1.44 0 2.587.347 3.44 1.04.88.693 1.32 1.653 1.32 2.88v3.38c0 .507.234.76.7.76zm-3.5-.76v-1c-.586-.387-1.28-.58-2.08-.58-.6 0-1.076.113-1.43.34-.353.227-.53.547-.53.96 0 .427.16.75.48.97.32.22.754.33 1.3.33.987 0 1.74-.34 2.26-1.02zm8.793-3.42V35h-2.82v-9.98h2.82v1.2c.894-.973 2.007-1.46 3.34-1.46 1.147 0 2.04.363 2.68 1.09.64.727.96 1.737.96 3.03V35h-2.82v-5.54c0-.72-.176-1.253-.53-1.6-.353-.347-.81-.52-1.37-.52-.426 0-.85.123-1.27.37-.42.247-.75.557-.99.93zM169.33 30c0 .8.26 1.467.78 2 .52.533 1.18.8 1.98.8s1.46-.267 1.98-.8c.52-.547.78-1.213.78-2 0-.8-.26-1.46-.78-1.98-.52-.533-1.18-.8-1.98-.8s-1.46.267-1.98.8c-.52.52-.78 1.18-.78 1.98zm-2.78 0c0-1.48.52-2.72 1.56-3.72 1.026-1.013 2.353-1.52 3.98-1.52 1.626 0 2.953.507 3.98 1.52 1.04 1.013 1.56 2.253 1.56 3.72 0 1.493-.52 2.747-1.56 3.76-1.04 1-2.367 1.5-3.98 1.5-1.614 0-2.94-.5-3.98-1.5-1.04-1.013-1.56-2.267-1.56-3.76zm15.913 5h-2.82v-9.98h2.82v1.22c.747-.987 1.76-1.48 3.04-1.48.72 0 1.363.16 1.93.48.567.32.957.727 1.17 1.22.333-.507.813-.917 1.44-1.23a4.412 4.412 0 0 1 2-.47c1.093 0 1.96.347 2.6 1.04.64.693.96 1.68.96 2.96V35h-2.82v-5.6c0-1.373-.553-2.06-1.66-2.06-.427 0-.833.127-1.22.38a2.34 2.34 0 0 0-.86.98V35h-2.82v-5.6c0-1.373-.553-2.06-1.66-2.06-.4 0-.8.127-1.2.38-.4.253-.7.567-.9.94V35zm25.133-2.18c.24 0 .433-.04.58-.12v2.06c-.36.28-.867.42-1.52.42-1.133 0-1.887-.427-2.26-1.28-.88.907-2.027 1.36-3.44 1.36-1.093 0-1.98-.307-2.66-.92-.68-.613-1.02-1.42-1.02-2.42 0-1.067.387-1.88 1.16-2.44.773-.56 1.7-.84 2.78-.84 1.133 0 2.093.207 2.88.62v-.3c0-1.253-.88-1.88-2.64-1.88-1.08 0-2.087.28-3.02.84v-2.36c1.013-.533 2.247-.8 3.7-.8 1.44 0 2.587.347 3.44 1.04.88.693 1.32 1.653 1.32 2.88v3.38c0 .507.233.76.7.76zm-3.5-.76v-1c-.587-.387-1.28-.58-2.08-.58-.6 0-1.077.113-1.43.34-.353.227-.53.547-.53.96 0 .427.16.75.48.97.32.22.753.33 1.3.33.987 0 1.74-.34 2.26-1.02z"/>
        </g>
        <path fill="#383838" d="M367.909 154h-3.624l7.2-16.896h3.312l7.2 16.896h-3.672l-1.656-3.888h-7.104L367.909 154zm5.208-12.576l-2.472 5.832h4.92l-2.448-5.832zM387.7 154h-3.432v-16.8h3.432V154zm13.255 0H397.5v-16.8h7.776c1.792 0 3.2.464 4.224 1.392 1.04.912 1.56 2.104 1.56 3.576 0 1.12-.308 2.092-.924 2.916-.616.824-1.468 1.404-2.556 1.74l5.184 7.176h-4.008l-4.896-6.792h-2.904V154zm0-13.776v4.08h4.128c.784 0 1.396-.176 1.836-.528.44-.352.66-.856.66-1.512 0-.64-.22-1.14-.66-1.5-.44-.36-1.052-.54-1.836-.54h-4.128zm19.12 14.088c-1.872 0-3.448-.576-4.728-1.728-1.28-1.152-1.92-2.68-1.92-4.584 0-1.776.576-3.264 1.728-4.464 1.152-1.216 2.656-1.824 4.512-1.824 1.728 0 3.112.616 4.152 1.848 1.04 1.232 1.56 2.728 1.56 4.488v.888h-8.592c.176.8.62 1.416 1.332 1.848.712.432 1.604.648 2.676.648 1.328 0 2.608-.352 3.84-1.056v2.712c-1.072.816-2.592 1.224-4.56 1.224zm-3.288-7.536h5.256c-.032-.688-.276-1.26-.732-1.716-.456-.456-1.052-.684-1.788-.684-.752 0-1.376.22-1.872.66-.496.44-.784 1.02-.864 1.74zm15.52 7.536c-2.128 0-3.808-.376-5.04-1.128v-3c.576.384 1.308.708 2.196.972a9.428 9.428 0 0 0 2.7.396c1.376 0 2.064-.336 2.064-1.008 0-.32-.2-.568-.6-.744a3.212 3.212 0 0 0-.624-.216l-.888-.216-.516-.132a4.32 4.32 0 0 1-.444-.132c-1.424-.384-2.428-.844-3.012-1.38-.584-.536-.876-1.316-.876-2.34 0-1.136.468-2.032 1.404-2.688.936-.656 2.228-.984 3.876-.984 1.824 0 3.32.368 4.488 1.104v2.88c-1.424-.832-2.872-1.248-4.344-1.248-1.28 0-1.92.32-1.92.96 0 .128.036.244.108.348.072.104.144.18.216.228.072.048.188.12.348.216.096.032.272.084.528.156s.424.124.504.156l1.272.264c1.328.304 2.312.756 2.952 1.356.64.6.96 1.412.96 2.436 0 1.12-.488 2.024-1.464 2.712-.976.688-2.272 1.032-3.888 1.032zm15.952-4.656v-7.632h3.384V154h-3.384v-1.44c-1.072 1.168-2.408 1.752-4.008 1.752-1.376 0-2.448-.436-3.216-1.308-.768-.872-1.152-2.084-1.152-3.636v-7.344h3.384v6.648c0 .864.212 1.504.636 1.92.424.416.972.624 1.644.624.512 0 1.02-.148 1.524-.444a3.47 3.47 0 0 0 1.188-1.116zm9.808 4.656c-.992 0-1.772-.268-2.34-.804-.568-.536-.852-1.372-.852-2.508v-13.8h3.384v12.912c0 .8.36 1.2 1.08 1.2.336 0 .624-.072.864-.216v2.784c-.576.288-1.288.432-2.136.432zm5.104-4.032v-5.424h-2.352v-2.832h2.352v-3.288h3.384v3.288h3.408v2.832h-3.408v4.752c0 .592.128 1.02.384 1.284s.672.396 1.248.396a3.88 3.88 0 0 0 1.752-.432v2.808c-.704.432-1.656.648-2.856.648-2.608 0-3.912-1.344-3.912-4.032zm13.791 4.032c-2.128 0-3.807-.376-5.04-1.128v-3c.577.384 1.308.708 2.196.972a9.428 9.428 0 0 0 2.7.396c1.377 0 2.064-.336 2.064-1.008 0-.32-.2-.568-.6-.744a3.212 3.212 0 0 0-.624-.216l-.888-.216-.516-.132a4.32 4.32 0 0 1-.444-.132c-1.424-.384-2.427-.844-3.012-1.38-.584-.536-.876-1.316-.876-2.34 0-1.136.468-2.032 1.404-2.688.937-.656 2.228-.984 3.876-.984 1.825 0 3.32.368 4.488 1.104v2.88c-1.424-.832-2.871-1.248-4.344-1.248-1.28 0-1.92.32-1.92.96 0 .128.036.244.108.348.072.104.144.18.216.228.072.048.188.12.348.216.096.032.272.084.528.156s.424.124.504.156l1.272.264c1.329.304 2.312.756 2.952 1.356.64.6.96 1.412.96 2.436 0 1.12-.487 2.024-1.464 2.712-.976.688-2.271 1.032-3.888 1.032z"/>
        <path fill="url(#c)" d="M586.794 57.878H259.322V7.508A7.51 7.51 0 0 1 266.831 0h312.458a7.506 7.506 0 0 1 7.505 7.507v50.37z"/>
        <path fill="#90EBFC" d="M465.003 30.48h-80.936a3.194 3.194 0 0 1 0-6.386h80.936a3.193 3.193 0 1 1 0 6.387"/>
        <path fill="#3593DD" d="M397.244 87.758a5.706 5.706 0 1 1-5.706-5.706 5.706 5.706 0 0 1 5.706 5.706" opacity=".3"/>
        <path fill="#3593DD" d="M428.766 87.758a5.707 5.707 0 1 1-11.415 0 5.707 5.707 0 0 1 11.415 0"/>
        <path fill="#3593DD" d="M460.286 87.758a5.707 5.707 0 1 1-11.414 0 5.707 5.707 0 0 1 11.414 0" opacity=".3"/>
        <path fill="#0461FB" d="M774.32 631.631s-4.8 3.775-18.303 4.754c-15.841 1.149-18.254-1.298-18.254-1.298l-1.992-39.326a1246.752 1246.752 0 0 0-22.045-178.562l-4.917-24.9 11.65 1.26 19.974-12.837a3.808 3.808 0 0 0 1.493-1.827c1.413-3.652 5.115-12.06 5.677-8.185l11.175 75.757c5.44 36.878 9.223 73.98 11.339 111.198l4.202 73.966z"/>
        <path fill="#113572" d="M646.384 636.56a1.45 1.45 0 0 0 1.04 1.941c1.584.346 3.869.832 4.821.954 8.698 1.11 15.378 1.159 20.974 1.04 7.291-.158 18.674-2.948 18.674-2.948l-.036 2.373h11.495s1.095-12.8-.589-16.935c-.877-2.16-6.44-7.777-6.44-7.777l-1.65 3.938-23.117-5.855s8.332 10.336-1.73 13.876c-.178.083-.365.188-.565.281-.494.24-.73.754-1.306.983-.212.093-2.268.466-2.983.682a7.927 7.927 0 0 1-.623.183c-.116.03-.234.071-.351.101-.224.062-.446.134-.668.184-.951.266-1.97.507-3.073.727-.033.01-.07.008-.105.02-.198.05-.398.09-.596.118h-.013a3.843 3.843 0 0 1-.375.081c-8.118 1.52-11.262 3.297-12.219 4.722a1.93 1.93 0 0 0-.168.287c-.015.042-.194.502-.397 1.024"/>
        <path fill="#FFF" d="M754.239 263.115l-9.072 79.295-72.216 5.124-.8.057-.159-1.875-8.948-77.575-1.122-35.93a9.447 9.447 0 0 1 6.918-9.949l35.703-9.76 22.55 2.669 14.58 3.303 12.566 44.64z"/>
        <path fill="#C8BDD1" d="M698.97 344.626L694.29 223.07l.794-.032 4.678 121.556zM721.41 344.621l-3.471-125.394.793-.02 3.471 125.392z"/>
        <path fill="#F19533" d="M541.834 626.966s-37.923 2.324-37.902 11.184c.019 8.861 41.66 4.284 41.66 4.284l-3.758-15.468z"/>
        <path fill="#B56326" d="M518.83 642.459h-.022c-.356-.02-8.753-.532-11.02-3.895-.342-.508-.407-1.06-.188-1.593 1.136-2.76 10.13-4.633 11.152-4.838a.393.393 0 0 1 .467.311.396.396 0 0 1-.311.467c-2.662.533-9.748 2.355-10.574 4.361-.119.29-.084.559.112.85 2.047 3.037 10.324 3.539 10.406 3.543a.398.398 0 0 1-.022.794M526.104 642.459a.397.397 0 0 1-.394-.348l-1.342-10.728a.398.398 0 0 1 .344-.445c.235-.019.416.129.443.345l1.342 10.73a.396.396 0 0 1-.393.446M533.052 641.805a.397.397 0 0 1-.393-.348l-1.343-10.729a.398.398 0 0 1 .344-.444.387.387 0 0 1 .443.344l1.343 10.731a.396.396 0 0 1-.394.446"/>
        <path fill="#383838" d="M592.839 621.275l-73.519-1.756.714-29.882 73.517 1.757z"/>
        <path fill="#383838" d="M566.79 597.516c.17.08 25.493-.55 26.352-.562 19.848-.298 36.521-1.62 43.763 6.975 7.987 9.48 1.173 23.896-6.005 26.653-7.18 2.758-85.627 11.883-85.627 11.883l-5.347-22.907 49.008-12.351-22.145-9.691z"/>
        <path fill="#383838" d="M544.148 597.09c-.173.078-25.49-.78-26.346-.8-19.846-.476-36.506-1.948-43.825 6.583-8.07 9.406-1.388 23.883 5.767 26.707 7.153 2.82 85.514 12.65 85.514 12.65l5.555-22.857-48.897-12.79 22.232-9.493z"/>
        <path fill="#161616" d="M568.942 627.527a.37.37 0 0 1-.108-.016l-62.723-17.73a.394.394 0 0 1-.273-.488.39.39 0 0 1 .49-.273l62.722 17.73a.396.396 0 1 1-.108.778"/>
        <path fill="#161616" d="M559.333 624.812a.397.397 0 0 1-.105-.78l51.799-14.338a.398.398 0 0 1 .211.765l-51.8 14.338a.406.406 0 0 1-.105.015M517.184 612.896a.402.402 0 0 1-.262-.099l-5.512-4.847a.397.397 0 0 1 .524-.595l5.512 4.847c.165.143.18.396.035.559a.386.386 0 0 1-.297.135"/>
        <path fill="#161616" d="M601.94 612.896a.386.386 0 0 1-.297-.135.393.393 0 0 1 .035-.559l5.51-4.847a.397.397 0 0 1 .524.595l-5.51 4.847a.402.402 0 0 1-.262.099"/>
        <path fill="url(#d)" fill-rule="nonzero" d="M590.212 596.741l-15.789.743-38.918-.318-2.87-.015s-3.139-3.511-9.243-6.203c-.901-.397-2.964-61.742 7.622-75.9.16-.221.335-.444.493-.634.19-.222.381-.429.572-.62.08-.078.158-.158.236-.237.35-.333.683-.603 1.05-.81.077-.063.14-.095.237-.142.365-.207.746-.397 1.11-.572.017-.016.033-.032.049-.032.048-.047.111-.063.159-.095.062-.031.11-.063.173-.08 16-7.998 33.648-3.046 33.648-3.046 1.078.666 3.492 1.301 6.3 2.412.509.222 1.033.444 1.54.667.667.301 1.334.619 2 1 .237.11.49.253.73.396a22.558 22.558 0 0 1 3.141 2.159l.064.063a16.576 16.576 0 0 1 2.984 3.159c5.015 6.904 4.712 78.105 4.712 78.105"/>
        <path fill="#FFBD9C" d="M197.71 528.163c-.368-.193 11.153-7.737 0-9.797-9.99-1.844 10.136-41.388 10.136-41.388l-11.181-29.714s-18.45 51.996-26.34 68.07c-1.576 3.208.065 11.809 3.074 13.735l5.615 3.594c2.676-5.843 16.086 1.37 18.697-4.5"/>
        <path fill="#FFBD9C" d="M188.78 508.784c-2.623 5.903-5.271 19.401-7.962 25.272 12.13 7.758 55.85 31.617 55.85 31.617l4.797-13.248s-32.547-41.788-52.684-43.64"/>
        <path fill="#FFBD9C" d="M239.35 451.056l-2.635 4.682-30.028 55.137-.445.81-.749 1.245s-3.14 24.799-5.663 34.94c-3.238 12.983-23.854 55.518-23.854 55.518l-9.387 24.759-10.992-10.792 40.027-169.648 1.048-3.222s43.074 5.492 42.677 6.571"/>
        <path fill="#0E326C" d="M157.128 639.93h13.975v-6.069h-13.975z"/>
        <path fill="#10459D" d="M159.679 619.623c-4.795 2.17-9.39 4.782-13.614 7.92-3.927 2.915-9.793 6.453-15.334 6.627-11.325.36-12.259 5.547-7.23 5.787 4.005.19 12.3.633 22.233-.037 8.687-.585 17.462-2.198 22.014-2.584 1.884-.158 3.153-.87 3.62-3.893.732-4.748-.032-9.078-2.597-11.952-2.25-2.527-5.86-3.332-8.943-1.937l-.15.069z"/>
        <path fill="#FFBD9C" d="M168.865 622.053c-2.276 6.094-14.03 13.605-41.55 12.408 0 0 27.223-7.731 28.275-17.112.221-1.97 8.937 1.101 12.635 2.502.896.339.975 1.307.64 2.202"/>
        <path fill="#0E326C" d="M259.32 550.008l.14 13.974-6.068.06-.142-13.972z"/>
        <path fill="#10459D" d="M239.126 561.635c2.22 4.774 4.876 9.34 8.057 13.535 2.955 3.897 6.55 9.726 6.781 15.265.473 11.323 5.67 12.203 5.858 7.174.15-4.008.51-12.307-.26-22.234-.673-8.68-2.373-17.438-2.803-21.985-.18-1.884-.901-3.146-3.931-3.58-4.753-.686-9.075.12-11.926 2.714-2.503 2.277-3.27 5.894-1.844 8.962l.068.15z"/>
        <path fill="#FFBD9C" d="M241.465 552.254c6.117 2.214 13.745 14.063 12.824 41.595 0 0-8.945-23.363-17.395-28.102-1.73-.97 1.39-10.37 2.752-14.082.332-.899.92.263 1.82.589"/>
        <path fill="#D89682" d="M176.06 531.021a.398.398 0 0 1-.386-.49l19.99-82.692a.397.397 0 0 1 .771.186l-19.989 82.693a.398.398 0 0 1-.385.303"/>
        <path fill="#0461FB" d="M258.271 373.448c1.076 16.83-12.929 30.21-29.787 29.778-16.857-.434-28.759-14.624-28.325-31.48.126-4.924 1.582-17.543 3.415-24.58 4.44-17.062 13.11-30.088 25.043-29.781 16.857.433 28.524 38.405 29.654 56.063"/>
        <path fill="#0461FB" d="M258.122 378.746c-6.472 57.828-24.997 83.584-24.997 83.584l-38.421-6.704-.473-.075-.189-.038-.206-.036.049-.714.116-2.029 6.158-80.989s59.615-7.756 57.963 7"/>
        <path fill="#114190" d="M194.147 455.68a.397.397 0 0 1-.384-.497c.09-.34 8.952-34.098 10.426-44.85.03-.218.23-.361.448-.34.217.03.368.23.338.447-1.481 10.802-10.355 44.605-10.443 44.943a.397.397 0 0 1-.385.296"/>
        <path fill="#D89682" d="M185.845 510.573a.397.397 0 0 1 0-.793c4.51 0 6.277-9.626 6.294-9.725a.396.396 0 1 1 .78.14c-.074.424-1.902 10.378-7.074 10.378"/>
        <path fill="#114190" d="M219.848 341.689l4.617 18.114a2.572 2.572 0 0 0 1.189 1.588 2.577 2.577 0 0 0 1.963.284l10.869-2.77a2.582 2.582 0 0 0 1.589-1.188 2.588 2.588 0 0 0 .282-1.965l-4.617-18.115-15.892 4.052zm7.123 20.862a3.371 3.371 0 0 1-1.723-.476 3.367 3.367 0 0 1-1.552-2.077l-4.714-18.498a.395.395 0 0 1 .285-.483l16.662-4.247a.402.402 0 0 1 .482.287l4.714 18.5a3.361 3.361 0 0 1-.37 2.565 3.365 3.365 0 0 1-2.074 1.552l-.098-.384.098.384-10.868 2.77c-.28.071-.56.107-.842.107z"/>
        <path fill="#114190" d="M225.412 340.148l4.615 18.116a2.599 2.599 0 0 0 3.154 1.87l10.868-2.769a2.582 2.582 0 0 0 1.59-1.188 2.588 2.588 0 0 0 .282-1.965l-4.617-18.114-15.892 4.05zm7.13 20.861a3.393 3.393 0 0 1-3.283-2.55l-4.714-18.5a.394.394 0 0 1 .286-.482l16.662-4.246a.4.4 0 0 1 .482.288l4.714 18.497a3.388 3.388 0 0 1-2.444 4.117l-.099-.384.099.384-10.869 2.77c-.28.071-.559.106-.835.106z"/>
        <path fill="#0461FB" d="M669.563 387.356l-1.61 241.075 35.759 3.17 7.697-238.116-34.458-17.523z"/>
        <path fill="#0461FB" d="M749.299 400.093c-.357 2.746-20.212 5.953-41.514 5.134-21.301-.816-39.172-2.509-38.221-17.87 1.934-31.29-.042-40.115 12.13-36.476 13.522 4.044 63.79-4.717 63.79-4.717s4.485 48.77 3.815 53.929"/>
        <path fill="#432254" d="M710.661 366.29a2.947 2.947 0 0 1-2.936-2.797l-.868-17.571.793-.04.868 17.573a2.152 2.152 0 0 0 2.246 2.039l3.503-.163.038.793-3.503.164a4.194 4.194 0 0 1-.141.003"/>
        <path fill="#432254" d="M714.55 373.9a.396.396 0 0 1-.397-.383l-.763-22.621a.396.396 0 0 1 .382-.412c.224.016.402.166.411.383l.764 22.621a.397.397 0 0 1-.383.411h-.014z"/>
        <path fill="#FFBD9C" d="M693.234 186.31c2.091 10.554-.392 20.466-4.56 27.838-2.467 4.36 1.06 9.648 6.013 8.905l30.741-4.598s-16.488-19.053-10.238-39.892l-22.853 3.452s.305 1.306.897 4.295"/>
        <path fill="#C48362" d="M692.23 189.296s14.096 7.84 18.98 4.197l2.688-2.43c.262 3.193-5.252 8.567-9.218 8.33-4.333-.256-10.576-4.753-12.45-10.097"/>
        <path fill="#A9A9A9" d="M696.95 191.77c-14.484-1.973-19.58-19.573-21.002-34.497-.39-3.991-.503-7.807-.46-11.059-.007-.119.004-.25.012-.366.265-15.211 9.509-22.736 23.556-22.955 19.443-.298 27.89 8.505 27.72 23.912-.188 15.418 6.657 49.935-29.826 44.964"/>
        <path fill="#FFBD9C" d="M704.264 196.88c-11.504-.135-24.126-18.517-23.937-34.567.187-16.05 8.177-36.236 19.68-36.101 11.502.135 25.166 22.754 24.977 38.805-.187 16.05-9.218 31.998-20.72 31.863z"/>
        <path fill="url(#d)" fill-rule="nonzero" d="M730.024 215.829l-6.158 9.475-17.712-3.714-16.268 5.27-9.205-7.857 1.888-1.54.62-.523 1.158-.937 1.127-.936 4.761-3.873s21.602 4.508 28.871-2.57l7.123 4.586 1.19.825.034.016.65.46 1.921 1.318z"/>
        <path fill="#C48362" d="M704.824 181.197a.365.365 0 0 1-.13-.659c.844-.568 1.788-1.069 2.622-1.512.727-.387 1.615-.86 1.877-1.125-3.925-2.23-5.693-6.309-4.766-10.954a.363.363 0 0 1 .713.142c-.87 4.357.8 8.174 4.467 10.207.329.183.375.432.373.564-.004.55-.715.953-2.323 1.807-.817.435-1.743.927-2.559 1.475a.363.363 0 0 1-.274.055"/>
        <path fill="#C8BDD1" d="M708.978 239.543c0 2.093-.748 3.79-1.67 3.79-.922 0-1.67-1.697-1.67-3.79 0-2.094.748-3.79 1.67-3.79.922 0 1.67 1.696 1.67 3.79M709.815 260.6c0 2.094-.748 3.79-1.67 3.79-.922 0-1.67-1.696-1.67-3.79 0-2.093.748-3.79 1.67-3.79.922 0 1.67 1.697 1.67 3.79"/>
        <path fill="#694582" d="M710.652 281.658c0 2.093-.748 3.79-1.67 3.79-.922 0-1.67-1.697-1.67-3.79s.748-3.79 1.67-3.79c.922 0 1.67 1.697 1.67 3.79M711.489 302.715c0 2.094-.748 3.79-1.67 3.79-.922 0-1.67-1.696-1.67-3.79 0-2.093.748-3.79 1.67-3.79.922 0 1.67 1.697 1.67 3.79"/>
        <path fill="#C8BDD1" d="M712.326 323.877c0 2.093-.748 3.792-1.67 3.792-.922 0-1.67-1.699-1.67-3.792 0-2.092.748-3.79 1.67-3.79.922 0 1.67 1.698 1.67 3.79"/>
        <path fill="#FFBD9C" d="M687.026 168.81c4.195 4.666 6.06 9.826 4.17 11.526-1.89 1.698-6.823-.708-11.015-5.376-4.193-4.666-6.06-9.825-4.168-11.525 1.889-1.698 6.82.708 11.013 5.375"/>
        <path fill="#C48362" d="M676.789 167.062a.365.365 0 0 1-.275-.241c-.277-.844-.225-1.524.156-2.022.628-.824 1.912-.764 1.966-.76a.37.37 0 0 1 .343.38.365.365 0 0 1-.38.347c-.266-.015-1.026.046-1.355.477-.223.295-.238.748-.04 1.35a.362.362 0 0 1-.415.47M682.463 174.447a.384.384 0 0 1-.098-.035c-2.325-1.22-4.835-5.225-4.94-5.395a.363.363 0 0 1 .617-.384c.025.04 2.51 4.008 4.66 5.136a.36.36 0 0 1 .153.489.362.362 0 0 1-.392.189"/>
        <g fill="#7C7C7C">
            <path d="M722.667 161.094c-.063-.99-7.75-4.367-11.722-3.26-3.97 1.109-4.13 4.066-3.267 3.645.864-.422 4.995-1.322 7.186-.967 2.19.355 7.846 1.235 7.803.582M682.33 160.316c.094-.988 7.883-4.125 11.817-2.895 3.936 1.23 4.002 4.192 3.153 3.742-.85-.448-4.95-1.473-7.153-1.187-2.201.286-7.88.99-7.816.34"/>
        </g>
        <g fill="#2D2D2D">
            <path d="M719.018 164.583l-6.706-.43-.04 1.643 7.31-.086z"/>
            <path d="M712.863 168.218c-.027 1.56.703 2.836 1.626 2.853.926.014 1.698-1.237 1.724-2.796.027-1.56-.702-2.836-1.627-2.852-.925-.017-1.696 1.237-1.723 2.795M689.278 164.856l6.711-.34.017 1.642-7.304-.182z"/>
            <path d="M693.322 168.729c-.138 1.553-.998 2.746-1.92 2.662-.921-.082-1.558-1.41-1.417-2.962.138-1.554 1-2.746 1.921-2.664.922.084 1.557 1.41 1.416 2.964"/>
        </g>
        <path fill="#FFBD9C" d="M726.997 171.079c-2.31 5.832-6.098 9.803-8.46 8.867-2.364-.935-2.407-6.423-.098-12.256 2.31-5.834 6.098-9.803 8.46-8.867 2.364.935 2.407 6.423.098 12.256"/>
        <path fill="#7C7C7C" d="M682.562 146.247l-1.593 8.342c-2.385 1.276-5.307-.376-5.41-3.079a100.353 100.353 0 0 1-.07-5.356l.21-.107c1.058.851 2.707-1.173 6.863.2"/>
        <path fill="#A9A9A9" d="M724.347 162.083l-4.401-12.962-.05-.163-.049-.162s-.26.096-.717.227c-.668.212-1.81.555-3.278.979h-.031c-9.164 2.64-31.319 8.266-37.533 2.901-4.956-4.27-9.978-14.82.523-23.021 18.21-14.232 35.396-2.803 42.34 7.353 6.946 10.142 5.038 10.892 5.594 15.017.57 4.124-2.398 9.831-2.398 9.831"/>
        <path fill="#7C7C7C" d="M719.847 148.795s-.26.099-.717.229c-.668.211-1.81.554-3.277.978h-.032c1.125-1.354 4.907-8.152 4.726-10.745-.014-.114-.014-.18-.014-.211 0-.213.162-.375.375-.375.179 0 .342.162.358.359v.178c.392 5.805-.457 8.299-1.419 9.587"/>
        <path fill="#C5A07A" fill-rule="nonzero" d="M571.912 430.44c4.12 1.822 7.482 13.594 7.169 18.282-.646 9.653-3.374 11.988-3.374 11.988l-6.949-18.62s.395-12.87 3.154-11.65"/>
        <path fill="#8E614B" d="M571.518 509.922s-2.714 5.952-16.57 6.46c-9.538.333-18.838-3.522-15.521-6.427 3-2.62 5.077-11.35 4.46-20.935a29.096 29.096 0 0 0-.223-2.571 47.39 47.39 0 0 0-.54-3.62c-.539-2.792-.745-4.029-.745-4.029l21.41-2.715c-1.317 4.475-1.857 8.459-1.857 11.982 0 .445 0 .859.03 1.27.494 14.173 9.556 20.585 9.556 20.585"/>
        <path fill="#3F2222" d="M562.313 487.735c.032.492-.097 1.046-.35 1.603-1.191 2.857-5.38 6.221-8.458 5.967-3.08-.255-7.142-2.842-9.618-6.285-.032-.842-.113-1.7-.223-2.572 3.587 1.89 12.41 6.08 16.078 3.493l2.19-1.873.381-.333z"/>
        <path fill="#FBC994" fill-rule="nonzero" d="M546.095 485.694c-15.208-2.035-17.476-16.392-18.471-30.359A95.232 95.232 0 0 1 527.44 445c-.003-.111.011-.233.023-.341.585-14.197 10.197-17.897 23.316-17.789 18.16.156 25.045 5.446 24.534 19.827-.511 14.392 7.077 43.855-29.22 38.997"/>
        <path fill="#8E614B" d="M573.235 463.66c-.533 14.98-9.32 29.67-20.056 29.287-10.735-.382-22.112-17.825-21.577-32.809.533-14.98 8.442-33.65 19.179-33.267 10.737.384 22.99 21.808 22.454 36.789"/>
        <path fill="#3F2222" d="M555.11 479.037a.34.34 0 0 0-.057-.624c-.909-.282-1.888-.48-2.751-.655-.756-.151-1.675-.338-1.981-.504 2.917-3.045 3.412-7.167 1.34-11.078a.34.34 0 0 0-.458-.14.341.341 0 0 0-.141.46c1.943 3.666 1.466 7.527-1.273 10.325-.244.253-.22.487-.184.605.15.492.895.662 2.563.997.848.171 1.808.365 2.684.64a.34.34 0 0 0 .259-.026M571.558 460.642c-.18-.908-7.716-3.08-11.255-1.561-3.537 1.517-3.32 4.274-2.572 3.777.746-.497 4.46-1.843 6.531-1.786 2.073.056 7.415.169 7.296-.43M533.387 463.945c-.035-.925 6.787-4.794 10.581-4.144 3.795.651 4.224 3.384 3.382 3.073-.84-.308-4.766-.75-6.769-.213-2.003.538-7.169 1.895-7.194 1.284"/>
        <path fill="#2D2D2D" d="M539.422 466.799l6.149-1.254.246 1.514-6.77.855z"/>
        <path fill="#2D2D2D" d="M544.35 468.596c.08 1.332-.494 2.45-1.283 2.497-.789.05-1.493-.99-1.576-2.32-.08-1.332.494-2.45 1.283-2.497.788-.048 1.493.99 1.576 2.32M566.746 466.166l-6.15-1.254-.246 1.515 6.77.855z"/>
        <path fill="#2D2D2D" d="M561.819 467.964c-.083 1.332.492 2.447 1.28 2.497.79.049 1.496-.99 1.577-2.322.082-1.33-.493-2.448-1.281-2.495-.79-.048-1.495.99-1.576 2.32"/>
        <path fill="#3F2222" d="M551.566 482.57a14.876 14.876 0 0 1-2.677-.864.34.34 0 0 1-.17-.45.335.335 0 0 1 .449-.168c.03.013 2.888 1.294 5.625 1.097 3.504-.25 5.651-2.02 5.672-2.038a.34.34 0 1 1 .438.519c-.094.08-2.327 1.928-6.061 2.197-1.15.08-2.298-.072-3.276-.292"/>
        <path fill="#FBC994" fill-rule="nonzero" d="M530.741 465.008l1.356-12.712.012-.158.011-.158s.258.035.702.06c.652.056 1.762.135 3.185.22l.03-.006c8.89.529 30.232 1.116 34.793-5.044 3.641-4.909 5.81-19.464-7.113-24.127-31.779-11.469-32.685 5.809-36.934 16.487-4.252 10.662-3.576 14.05-2.16 17.52 1.468 3.6 6.118 7.918 6.118 7.918"/>
        <path fill="#C5A07A" d="M532.54 452.022s-.163-.007.282.019c.652.055 1.761.135 3.187.219l.028-.007c-1.301-1.001-6.142-6.421-6.509-8.82-.008-.107-.022-.17-.028-.198a.347.347 0 0 0-.42-.265c-.163.037-.277.22-.253.402l.038.162c.832 5.369 3.676 8.488 3.676 8.488"/>
        <path fill="#3F2222" d="M553.553 485.774c-1.022-.23-1.686-.703-1.698-.712a.368.368 0 0 1 .433-.597 4.202 4.202 0 0 0 4.952-.224.369.369 0 0 1 .443.59c-1.55 1.156-3.041 1.186-4.13.943"/>
        <path fill="#8E614B" d="M537.711 466.355c3.81 4.45 5.44 9.31 3.636 10.855-1.804 1.544-6.354-.815-10.164-5.266-3.812-4.45-5.439-9.309-3.636-10.852 1.802-1.544 6.355.811 10.164 5.263"/>
        <path fill="#3F2222" d="M528.192 464.495a.338.338 0 0 1-.25-.231c-.242-.796-.179-1.429.188-1.886.608-.755 1.804-.67 1.855-.665a.344.344 0 0 1 .31.365.34.34 0 0 1-.362.313c-.25-.02-.959.02-1.275.416-.217.268-.24.692-.068 1.258a.335.335 0 0 1-.225.422.323.323 0 0 1-.173.008M533.323 471.515a.389.389 0 0 1-.09-.033c-2.143-1.19-4.396-4.987-4.492-5.149a.34.34 0 0 1 .121-.463.336.336 0 0 1 .463.12c.024.037 2.254 3.797 4.238 4.896a.341.341 0 0 1 .132.464.339.339 0 0 1-.372.165"/>
        <path fill="#8E614B" d="M574.98 469.364c-2.286 5.394-5.913 9.018-8.098 8.09-2.186-.925-2.103-6.05.184-11.444 2.287-5.396 5.912-9.018 8.097-8.091 2.186.927 2.103 6.052-.184 11.445"/>
        <path fill="#3F2222" d="M575.224 462.428c-.003-.002-.006-.002-.01-.002a.341.341 0 0 1-.246-.412c.06-.24.142-.946-.193-1.326-.232-.258-.645-.352-1.232-.277a.345.345 0 0 1-.38-.296.34.34 0 0 1 .296-.379c.824-.105 1.436.065 1.825.505.641.727.356 1.89.343 1.94a.34.34 0 0 1-.403.247M572.192 471.17a.34.34 0 0 1-.16-.575c1.636-1.573 2.833-5.777 2.843-5.819.052-.18.244-.293.419-.235.179.05.285.239.236.418-.052.18-1.258 4.425-3.028 6.125a.336.336 0 0 1-.31.085"/>
        <g fill="#0461FB">
            <path d="M802.055 378.978l-8.354-8.546 1.134-1.11 8.355 8.547z"/>
            <path d="M794.665 378.847l-1.093-1.151 8.654-8.242 1.094 1.15z"/>
        </g>
        <g fill="#0461FB">
            <path d="M627.456 210.993l-8.354-8.547 1.135-1.109 8.354 8.547z"/>
            <path d="M620.066 210.861l-1.093-1.15 8.654-8.242 1.094 1.15z"/>
        </g>
        <g fill="#0461FB">
            <path d="M79.629 379.533l-8.355-8.546 1.135-1.11 8.355 8.547z"/>
            <path d="M72.24 379.401l-1.094-1.15 8.654-8.242 1.094 1.15z"/>
        </g>
        <g fill="#0461FB">
            <path d="M623.847 471.997l9.699-6.982.926 1.287-9.698 6.984z"/>
            <path d="M625.082 464.71l1.3-.91 6.856 9.79-1.301.91z"/>
        </g>
        <g fill="#0461FB">
            <path d="M210.436 87.22l-6.663-17.772 1.484-.555 6.664 17.77z"/>
            <path d="M199.188 82.02l-.54-1.492 17.857-6.435.54 1.494z"/>
        </g>
        <path fill="#C27727" d="M158.79 292.684l-6.235-4.312 4.726-5.644 36.158 1.801.3 31.94z"/>
        <path fill="#FFBD9C" d="M139.998 269.122s3.823 1.002 7.063 3.43c1.588 1.192 3.512 2.192 5.06 2.901 1.972.905 3.675 2.306 4.988 4.036l.014.02 4.39 3.429s-2.017 8.816-2.722 9.747c-.967 1.274-4.096-1.253-4.096-1.253l-6.722-2.604-6.745-17.222-1.23-2.484z"/>
        <path fill="#C48362" d="M701.109 185.913a16.161 16.161 0 0 1-2.889-.857.362.362 0 0 1-.19-.476.355.355 0 0 1 .474-.192c.033.013 3.125 1.31 6.05 1.03 3.743-.36 5.996-2.308 6.019-2.327a.364.364 0 0 1 .482.544c-.098.086-2.44 2.123-6.43 2.507-1.23.116-2.464-.02-3.516-.229"/>
        <path fill="#B6DDFB" d="M156.879 286.398l-10.86 12.102s-17.345-17.668-22.333-22.77a1.815 1.815 0 0 1 .078-2.63l10.07-9.121a1.413 1.413 0 0 1 1.952.06l1.271 1.273 16.5 16.577c1.124 1.15 1.95 1.983 1.95 1.983l1.339 1.336a.881.881 0 0 1 .033 1.19"/>
        <path fill="#3DA8FB" d="M155.507 283.871l-9.656 10.751-19.563-19.167 10.769-10.144 16.5 16.578c1.123 1.149 1.95 1.982 1.95 1.982"/>
        <path fill="#7CA6C6" d="M124.309 272.602l23.334 22.929-2.603 2.208-21.36-21.988a1.849 1.849 0 0 1 .086-2.659l.543-.49z"/>
        <path fill="#E94B7D" d="M194.421 162.622c3.268 3.145 7.475 4.596 11.327 4.29 2.716-.21 5.252-1.297 7.163-3.273 1.036-1.076 1.747-2.24 2.16-3.48 1.454-4.29-.665-9.37-4.71-13.812-7.685-8.458-16.19-5.974-21.13-1.79-.444.373-.866.754-1.255 1.16-.77.789-1.265 1.648-1.502 2.544-1.293 4.454 3.317 9.874 7.947 14.36"/>
        <path fill="#B0355C" d="M186.475 148.26l1.857 3.477 17.417 15.174c2.714-.208 5.251-1.295 7.162-3.273 1.037-1.074 1.748-2.237 2.16-3.479-.14-.255-.265-.517-.414-.788-5.682-10.617-18.393-13.845-25.425-14.815-.445.373-.867.754-1.256 1.16-.77.79-1.265 1.65-1.501 2.545"/>
        <path fill="#C63865" d="M167.842 183.683c6.379 13.139 19.158 20.474 30.333 18.244a19.26 19.26 0 0 0 4.803-1.604c7.355-3.584 11.656-11.26 12.24-20.119.4-5.696-.748-11.901-3.614-17.791-7.317-15.062-23.085-20.492-35.33-14.98-23.41 10.55-15.766 21.197-8.432 36.25"/>
        <path fill="#B0355C" d="M198.176 201.928a19.282 19.282 0 0 0 4.802-1.605c7.355-3.585 11.656-11.26 12.239-20.118-6.133 5.012-15.399 10.068-15.399 10.068s-1.226 8.985-1.642 11.655"/>
        <path fill="#FFBD9C" d="M193.259 239.693c-.156 1.717 19.572-10.754 26.963-15.022a1.976 1.976 0 0 0 .234-3.271c-5.678-4.431-19.074-16.928-18.298-30.682.325-5.743-22.396 10.859-22.396 10.859 18.1 18.577 14.454 27.557 13.497 38.116"/>
        <path fill="#D89682" d="M187.71 210.616c.392-.302 9.537-7.315 8.96-4.782-.442 1.93-7.52 7.269-7.52 7.269l-1.44-2.487z"/>
        <path fill="#FFBD9C" d="M164.432 191.84c1.859 3.816 4.771 8.116 7.588 11.877.769 1.02 1.537 2.002 2.241 2.932 3.241 4.063 5.847 7 5.847 7s15.092-4.596 19.49-10.59c3.992-5.459 9.609-12.355 1.45-29.145-8.152-16.774-21.659-26.9-32.232-21.762-10.573 5.137-12.535 22.913-4.384 39.687"/>
        <path fill="#FFBD9C" d="M208.167 184.181c-1.016 5.483-4.268 9.478-7.268 8.923-2.998-.556-4.604-5.45-3.59-10.934 1.016-5.482 4.27-9.477 7.267-8.923 2.999.556 4.606 5.45 3.59 10.934M161.681 183.758s1.465 3.796 2.218 8.873c.466 3.152-1.07 8.307.712 7.761l7.647-3.2-10.577-13.434z"/>
        <path fill="#561A25" d="M173.055 188.844c.945.91 1.25 2.128.68 2.717-.57.59-1.797.33-2.741-.58-.945-.912-1.248-2.13-.68-2.718.57-.59 1.797-.33 2.741.58"/>
        <path fill="#7E2E3B" d="M177.689 180.802c.803-.16-2.574-.743-8.548 1.711-1.787.735-3.275 1.516-3.868 2.438-.464.72 1.065 1.662 2.826.435 1.967-1.368 5.655-3.798 9.59-4.584"/>
        <path fill="#561A25" d="M174.433 185.732l-5.186 2.618 1.172 1.918 4.331-3.97z"/>
        <path fill="#E94B7D" d="M206.951 164.515c-1.274 7.228-6.5 12.275-13.689 13.755-9.648 1.99-29.42 1.256-33.858-6.79-1.885-3.416 1.165-12.612 3.771-15.5 4.111-4.554 9.045-6.606 9.045-6.606l17.719-.029 13.599 9.526 3.413 5.644z"/>
        <path fill="#F7F7F7" d="M172.02 203.718c.767 1.02 1.537 2.001 2.242 2.931 1.677-.398 4.302-2.653 3.555-6.075-.268-1.197-4.428 2.05-5.796 3.144"/>
        <path fill="#D89682" d="M205.85 180.298a.424.424 0 0 0 .24-.39c-.026-1.433-.43-2.412-1.198-2.91-1.063-.691-2.377-.147-2.431-.125-.252.129-.314.338-.224.553a.422.422 0 0 0 .55.227c.01-.004.966-.392 1.648.055.516.338.79 1.083.811 2.217a.419.419 0 0 0 .43.413c.062 0 .121-.014.173-.04M204.783 186.444a.424.424 0 0 0-.168-.805c-.867-.028-1.438-.266-1.698-.708-.442-.75.035-2.033.255-2.463a.423.423 0 0 0-.75-.389c-.042.081-1.002 1.972-.234 3.278.414.71 1.222 1.088 2.4 1.128a.428.428 0 0 0 .195-.041"/>
        <path fill="#B0355C" d="M193.005 170.235c-14.714.577-25.122-6.715-27.498-9.225-.438-.461-.7-.852-.556-1.26a.6.6 0 0 1 1.162.122c.897 1.364 16.266 13.567 37.224 7.446a.601.601 0 0 1 .337 1.152 44.083 44.083 0 0 1-10.669 1.765"/>
        <path fill="#B7652E" d="M155.79 288.965a13.943 13.943 0 0 0-5.977 6.75c-1.833 4.401-3.72 10.188-.383 9.024 11.398-3.969 9.579-17.7 9.136-17.423a83.842 83.842 0 0 1-2.776 1.65"/>
        <path fill="url(#d)" fill-rule="nonzero" d="M239.746 275.68c1.883 20.656-.25 29.842 1.58 39.423.66 3.467 3.947 14.775 7.246 22.152 4.755 10.629-45.831 13.571-45.831 13.571l-1.136-23.251-14.64-27.475-.611-2.004-2.125-7.007a45.3 45.3 0 0 1-.52-24.515c2.36-9.109 6.971-23.432 10.142-27.781 10.464-14.23 16.673-19.68 23.07-19.331 3.312.177 18.723 11.198 22.825 56.217"/>
        <path fill="#B56835" d="M229.838 251.079a.397.397 0 0 1-.39-.327c-1.686-9.336-6.485-11.88-10.213-12.37-4.831-.627-9.491 2.012-10.448 4.042a.402.402 0 0 1-.529.19.397.397 0 0 1-.189-.528c1.224-2.6 6.416-5.134 11.269-4.491 3.268.43 9.027 2.693 10.892 13.017a.397.397 0 0 1-.392.467"/>
        <path fill="#FFBD9C" d="M160.58 294.663l1.012 6.94-7.301 3.121s-19.628-11.633-19.73-13.511a1.56 1.56 0 0 1 .02-.432c-.018-.06-.002-.13.01-.2.01-.216.069-.428.124-.655.007-.035.026-.09.034-.124.176-.638.433-1.28.71-1.846.128-.263.256-.527.35-.732l.022-.038c.275-.515.472-.83.472-.83 8.154-12.524 16.736 3.854 16.736 3.854l7.54 4.453z"/>
        <path fill="url(#d)" fill-rule="nonzero" d="M223.145 290.201c5.63-13.226 8.296-15.496 8-6.81-.444 13.03-10.238 33.537-14.063 42.79v.048c-1.333 3.142-2.873 5.825-4.698 7.793-1.301 1.428-3.047.19-4.618.857-1.937.809-4.174 2.872-7.079 2.11-.666-.174-.952.223-1.698 0h-.016c-1.492-.428-3.047-1.03-4.666-1.745-9.935-4.397-21.458-11.443-30.25-18.919-3.413-2.92-7.016-5.587-9.92-7.602-.238-.159-.46-.318-.683-.476a133.53 133.53 0 0 0-5.253-3.476s4.857-3.095 7.396-7.444c3.873-6.602 2.968-10.014 2.968-10.014l5.095 2.3.73.334 32.058 14.183c1.843-35.844 5.34-56.872 10.493-63.083 3.968-4.73 15.173-6.618 20.585 4.301 1.635 3.27 2.936 11.475 3.46 21.601.27 5.063.334 10.602.159 16.252"/>
        <path fill="#B56835" d="M196.09 304.746a.404.404 0 0 1-.167-.036l-9.124-4.25a.398.398 0 0 1-.194-.527.394.394 0 0 1 .527-.192l8.653 4.028 6.41-38.361a.395.395 0 0 1 .456-.325c.217.036.363.24.327.455l-6.496 38.877a.4.4 0 0 1-.392.331M202.847 337.856a17.1 17.1 0 0 1-3.95-.481.397.397 0 0 1 .182-.772c4.68 1.111 8.915.199 12.594-2.713 17.773-14.06 17.941-70.226 17.941-70.792a.397.397 0 0 1 .794 0c.001 2.325-.17 57.118-18.241 71.415-2.814 2.225-5.938 3.343-9.32 3.343"/>
        <path fill="#B56835" d="M199.808 282.496h-.007a.397.397 0 0 1-.39-.403c.065-4.256-1.962-8.957-1.982-9.004a.397.397 0 1 1 .727-.316c.087.197 2.115 4.907 2.049 9.332a.397.397 0 0 1-.397.39M202.749 309.255a.396.396 0 0 1-.241-.083c-4.744-3.621-9.88-5.997-9.933-6.021a.397.397 0 0 1 .332-.72c.052.023 5.265 2.434 10.083 6.113a.397.397 0 1 1-.241.711"/>
        <path fill="#FFBD9C" d="M128.754 280.974s-1.04 1.51-.844 2.325c.219.906.822 2.215 2.085 2.72 1.68.668 7.066 1.344 7.066 1.344l4.98-5.424-10.917 1.382-2.37-2.347z"/>
        <path fill="#FFBD9C" d="M145.853 278.614a1.797 1.797 0 0 0-1.944.363c-.814.783-2.327 2.68-2.128 2.995.238.38 1.654-.127 2.104-.014l-.61 2.56 5.713 1.9-.963-5.158a3.559 3.559 0 0 0-2.118-2.624l-.054-.022z"/>
        <path fill="#D89682" d="M139.535 289.344c-.08.136-.231.241-.366.228a.467.467 0 0 1-.173-.036c-.035-.008-2.2-.995-3.536-1.58.128-.263.255-.526.349-.73 1.32.586 3.41 1.545 3.523 1.597.186.083.281.321.203.52M137.205 291.961a.468.468 0 0 1-.345.189c-.053-.02-.138-.029-.201-.078-.078-.044-1.016-.619-2.08-1.29-.015-.062 0-.13.013-.2.01-.216.069-.429.123-.657.923.578 1.844 1.14 2.376 1.476.161.12.227.366.114.56M144.076 280.19l.045 1.132s-.008.573-.148.525c-.13-.043-1.087-.084-1.087-.084l1.19-1.573z"/>
        <path fill="#F9F9F9" d="M133.415 267.54l-4.485 4.048a.603.603 0 1 1-.81-.899l4.484-4.045a.605.605 0 0 1 .811.897"/>
        <path fill="#D89682" d="M148.797 277.107l1.155 1.161 1.575-.685z"/>
        <path fill="#FFBD9C" d="M152.128 277.156s-4.107 1.248-4.196 1.887c-.06.453.941 1.859 2.888 2.006.91.07 3.19.135 3.19.135l-1.882-4.028z"/>
        <path fill="#0461FB" d="M121.245 265.054a.785.785 0 0 1-.427-.126l-8.681-5.539a.791.791 0 0 1-.241-1.095.796.796 0 0 1 1.095-.243l8.683 5.54a.794.794 0 0 1-.429 1.463M125.825 261.155a.793.793 0 0 1-.76-.562l-2.837-9.282a.794.794 0 0 1 1.517-.463l2.838 9.281a.793.793 0 0 1-.758 1.026M133.398 259.544h-.036a.795.795 0 0 1-.757-.83l.441-9.695a.793.793 0 1 1 1.586.073l-.442 9.695a.793.793 0 0 1-.792.757M109.657 271.428a.794.794 0 0 1-.006-1.587l10.108-.085h.008a.795.795 0 0 1 .007 1.587l-10.11.085h-.007z"/>
        <path fill="#FFF" d="M551.905 557.742a.793.793 0 0 1-.763-.578l-2.684-9.537a.794.794 0 0 1 1.529-.432l2.682 9.537a.793.793 0 0 1-.764 1.01"/>
        <path fill="#C48362" d="M703.846 189.674c-1.012-.202-1.679-.652-1.69-.662a.364.364 0 0 1 .413-.597c.096.064 2.398 1.602 4.872-.338a.366.366 0 0 1 .511.06.365.365 0 0 1-.062.512c-1.498 1.174-2.966 1.24-4.044 1.025"/>
        <path fill="#FFF" d="M557.916 557.883a.793.793 0 0 1-.72-1.125l4.062-8.814a.794.794 0 1 1 1.443.663l-4.064 8.814a.792.792 0 0 1-.721.462M564.64 561.725a.793.793 0 0 1-.567-1.35l6.785-6.938a.794.794 0 0 1 1.135 1.111l-6.787 6.94a.787.787 0 0 1-.566.237M546.612 561.45a.795.795 0 0 1-.523-.198l-7.598-6.669a.795.795 0 0 1-.073-1.12.797.797 0 0 1 1.12-.073l7.598 6.669a.795.795 0 0 1-.524 1.39"/>
        <path fill="#B56835" d="M164.39 289.948c-.984 4.793-3.619 13.474-10.253 18.775-.238-.16-.46-.317-.683-.477 6.666-5.205 9.253-13.934 10.206-18.632l.73.334z"/>
        <path fill="#BC7427" d="M88.812 578.694c0 2.561-13.477 4.845-30.104 4.845s-30.105-2.284-30.105-4.845c0-2.562 13.907-3.073 30.533-3.073s29.676.511 29.676 3.073"/>
        <path fill="#73E6AE" d="M114.437 454.548s-.014.259-.028.735c-.302 5.83-3.154 45.35-25.9 79.026-24.648 36.467-11.577 50.23-11.577 50.23H62.564s6.336-106.856 51.254-129.675c.202-.114.418-.216.62-.316"/>
        <path fill="#409A6C" d="M114.437 454.548s-.014.259-.028.735c-2.405 3.928-17.435 29.024-30.94 60.97-15.117 35.72-12.238 64.198-12.21 64.487a.344.344 0 0 1-.315.387h-.045a.37.37 0 0 1-.36-.316c-.027-.288-2.922-28.952 12.253-64.83 13.576-32.092 28.693-57.273 31.026-61.117.202-.114.418-.216.62-.316"/>
        <path fill="#65CC98" d="M67.8 544.781l7.45 16.062s-2.52 9.753-1.653 14.27c.865 4.517 1.25 5.661 1.25 5.661h-4.2l-3.28-33.65.432-2.343zM62.132 584.54H49.765s-6.853-34.007-35.445-60.325c-.39-.359-.49-.849-.375-1.28.058-.23.173-.448.33-.634a1.45 1.45 0 0 1 1.397-.519c6.709 1.224 20.733 6.018 35.649 24.577 20.745 25.814 10.811 38.181 10.811 38.181"/>
        <path fill="#73E6AE" d="M75.247 586.268H63.284s-2.002-5.717-11.964-39.91c-9.286-31.817 11.23-82.035 14.152-88.888v-.014c.216-.518.332-.778.332-.778.1-.059.216-.116.316-.143 4.866-1.5 13.332 24.2 6.334 45.422-13.633 41.406 2.793 84.311 2.793 84.311"/>
        <path fill="#409A6C" d="M66.682 583.258a.362.362 0 0 1-.202.46.388.388 0 0 1-.13.03.374.374 0 0 1-.344-.231c-5.831-15.29-12.196-49.225-5.831-80.047 5.499-26.636 5.413-42.444 5.297-46v-.015c.216-.517.332-.778.332-.778.1-.057.216-.114.316-.143a.23.23 0 0 1 .043.129c.014.159.993 16.543-5.284 46.95-6.334 30.68 0 64.442 5.803 79.645M56.834 582.136a.357.357 0 0 1-.33.387h-.03c-.186 0-.345-.128-.36-.316-3.269-36.972-40.63-58.409-42.17-59.274.058-.228.174-.446.332-.631 1.18.647 39.218 22.3 42.558 59.834"/>
        <path fill="url(#d)" fill-rule="nonzero" d="M88.81 578.692l-.936 9.475-.079.81-.746 7.634-.08.81-4.173 42.534H32.817l-2.936-42.55-.048-.81-.555-7.936-.048-.808-.635-9.159s8.714 1.952 30.537 1.952c23.14 0 29.679-1.952 29.679-1.952"/>
        <path fill="#9E6235" d="M87.875 588.167l-.08.81c-9.522 1.428-18.791 1.951-27.314 1.951a218.89 218.89 0 0 1-31.203-2.268l-.047-.809c12.697 1.871 34.948 3.887 58.644.316M87.05 596.61l-.08.81c-9.618 1.46-18.998 2.002-27.6 2.002-11.713 0-21.982-1.002-29.489-2.018l-.047-.81c12.982 1.794 34.44 3.508 57.215.017"/>
        <path fill="#F19533" d="M569.017 626.763s37.924 2.324 37.903 11.183c-.02 8.86-41.662 4.284-41.662 4.284l3.759-15.467z"/>
        <path fill="#B56326" d="M592.02 642.254a.398.398 0 0 1-.022-.793c.083-.005 8.36-.505 10.407-3.544.195-.29.23-.56.111-.85-.825-2.005-7.912-3.827-10.573-4.36a.396.396 0 0 1-.311-.467.392.392 0 0 1 .466-.311c1.022.204 10.017 2.077 11.153 4.837.219.533.154 1.086-.189 1.594-2.266 3.364-10.664 3.874-11.02 3.894h-.022zM584.747 642.254a.396.396 0 0 1-.394-.446l1.343-10.73a.39.39 0 0 1 .443-.344.398.398 0 0 1 .344.444l-1.343 10.729a.397.397 0 0 1-.393.347M577.8 641.6a.396.396 0 0 1-.394-.446l1.343-10.729a.388.388 0 0 1 .443-.344.398.398 0 0 1 .344.443l-1.342 10.729a.397.397 0 0 1-.394.347"/>
        <path fill="#FFF" d="M728.104 214.511l-5.985 7.317a.422.422 0 0 1-.411.143l-15.602-4.127-14.95 5.65c-.05.016-.096.032-.143.032a.38.38 0 0 1-.222-.08c-2.016-1.443-5.81-4.173-8.222-5.983l.62-.523c2.142 1.57 5.395 3.936 7.887 5.745l14.872-5.634a.395.395 0 0 1 .236-.016l15.474 4.095 5.795-7.079.65.46z"/>
        <path fill="#113572" d="M767.662 634.975c-.01-.366-1.004-36.934-3.636-73.983-3.891-54.803-16.291-151.19-25.548-209.07l.784-.123c9.258 57.893 21.663 154.314 25.555 209.138 2.633 37.067 3.63 73.652 3.639 74.015l-.794.023zM675.405 629.06l-.794-.01 3.743-276.029.793.01z"/>
        <path fill="#113572" d="M773.574 639.672l-33.387.71-.006-.26c-.11-5.173 1.54-6.61 5.194-9.093 2.641-1.795 5.16-2.443 9.937-2.962 4.795-.52 6.744.06 10.696 1.573 4.092 1.567 7.453 4.76 7.566 10.032M671.505 357.318c.968-.241 74.482-5.57 74.482-5.57l-.677-11-73.375 5.998-.43 10.572z"/>
        <path fill="#0A4AB5" d="M693.705 356.461l-3.806.24-.724-11.399 3.808-.243zM739.237 352.239l-3.804.276-.69-10.89 3.8-.324zM727.922 353.682l-3.806.241-.723-11.398 3.804-.297zM682.937 356.427l-3.745 1.195-.724-11.411 3.803-.31z"/>
        <path fill="url(#d)" fill-rule="nonzero" d="M717.36 353.836l-13.14.966-.673-10.627 13.132-1.075z"/>
        <path fill="#FFBD9C" d="M707.401 328.92c.857 1.34 6.68 3.933 11.182 7.388 1.296.982 4.792 3.052 5.132 4.324.153.513-.532.519-.69.742-.057.06-.06.154.016.276.239.376.717.882 1.13 1.369l.029.017c.357.43.62.822.683 1.146.085.413-.493.58-.856.826-.153.095-.267.215-.288.37-.019.121.057.302.156.476l.015.009c.198.408.511.907.333 1.192-.145.232-.717.177-1.155.243-.205.025-.382.066-.484.17-.09.08-.137.22-.165.354-.116.457.177 1.514-.957 1.088-3.66-1.349-12.119-5.378-19.676-8.91-3.276-1.53-6.085-3.24-8.651-4.366-4.584-2.01-2.348-17.55-2.348-17.55s4.475.883 12.835 4.31c1.74.728 12.02 4.382 10.075 7.469-.735 1.165-8.853-4.905-6.316-.943z"/>
        <path fill="#C48362" d="M724.027 345.009c-.154.094-.266.213-.287.37-.019.12.056.301.155.476-2.437-1.428-8.243-4.886-9.816-5.945a.373.373 0 0 1-.114-.543.41.41 0 0 1 .567-.12c1.477.998 6.942 4.243 9.495 5.762M723.025 341.374c-.058.06-.059.154.017.276.238.376.716.882 1.13 1.37-2.358-1.437-9.525-5.803-11.082-6.946-.183-.131-.23-.389-.084-.562a.405.405 0 0 1 .55-.092c1.26.92 6.416 4.086 9.469 5.954M723.088 347.298c-.205.024-.381.065-.485.171-.088.078-.136.218-.164.352-4.89-2.925-11.273-6.761-11.624-6.923-.199-.107-.301-.34-.195-.539a.379.379 0 0 1 .502-.195c.333.131 8.651 5.14 11.966 7.134"/>
        <path fill="#C8BDD1" d="M655.414 302.55l.016.031-7.112 1.603h-.094a.407.407 0 0 1-.382-.302.403.403 0 0 1 .303-.476l7.3-1.65-.031.793zM681.67 313.026l-13.88-5.636a.394.394 0 0 1-.207-.52.394.394 0 0 1 .52-.208l13.881 5.637a.395.395 0 0 1 .108.658.395.395 0 0 1-.422.069zm-5.813 18.85l-5.427-1.229a.394.394 0 0 1-.286-.48.394.394 0 0 1 .48-.287l5.43 1.229a.395.395 0 0 1 .21.634.395.395 0 0 1-.407.134zM664.335 278.668a.395.395 0 0 1-.39-.467c4.804-26.59 4.133-37.7 4.126-37.81a.397.397 0 0 1 .37-.422c.265-.02.408.153.422.37.007.11.684 11.316-4.137 38.002a.396.396 0 0 1-.39.327"/>
        <path fill="#C8BDD1" d="M668.046 252.82a.397.397 0 0 1-.397-.398c0-2.26-2.41-8.886-2.433-8.953a.396.396 0 0 1 .744-.273c.102.278 2.483 6.827 2.483 9.226a.397.397 0 0 1-.397.397"/>
        <path fill="#113572" d="M746.633 602.428a.398.398 0 0 1-.359-.567c5.766-12.073 4.016-57.68 3.997-58.14a.398.398 0 0 1 .38-.414c.256-.003.404.164.413.381.075 1.884 1.778 46.267-4.072 58.513a.399.399 0 0 1-.359.227"/>
        <path fill="#C8BDD1" d="M731.754 297.893c0 4.757-1.924 8.612-4.295 8.612-2.373 0-4.295-3.855-4.295-8.612 0-4.756 1.922-8.611 4.295-8.611 2.371 0 4.295 3.855 4.295 8.611"/>
        <path fill="#C48362" d="M715.883 279.597l8.127 6.512 5.84.848-5.048 7.362-7.574-1.153z"/>
        <path fill="#1C1C1C" d="M723.57 307.264l-12.737 3.176a3.015 3.015 0 0 1-3.653-2.196l-7.294-29.252a3.015 3.015 0 0 1 2.196-3.653l12.737-3.176a3.013 3.013 0 0 1 3.652 2.196l7.293 29.252a3.013 3.013 0 0 1-2.194 3.653"/>
        <path fill="#C8BDD1" d="M706.865 279.965l.006-.002a.953.953 0 0 0 .694-1.148l-.266-1.083a.952.952 0 0 0-1.147-.7l-2.862.698-.006.002a.952.952 0 0 0-.692 1.147l.265 1.084c.06.247.212.456.43.588.216.13.47.17.718.11l2.86-.696zm.198.768l-.01.002-2.86.697a1.727 1.727 0 0 1-1.32-.204 1.722 1.722 0 0 1-.787-1.076l-.265-1.084a1.747 1.747 0 0 1 1.27-2.106l.01-.003 2.862-.697a1.747 1.747 0 0 1 2.108 1.282l.265 1.084a1.748 1.748 0 0 1-1.273 2.105zM709.041 282.638h-.001l-5.607 1.366a.397.397 0 0 1-.19-.77l5.608-1.366a.396.396 0 1 1 .19.77"/>
        <path fill="#FFBD9C" d="M730.14 286.91s-6.993 1.012-10.806 3.729c-3.32 2.366-3.532 9.93-.272 11.697.699.38 1.53.655 2.406.857 3.616.83 7.415.271 10.778-1.298l5.857-2.733-7.963-12.251z"/>
        <path fill="#FFBD9C" d="M721.568 289.369s-18.384 1.097-19.044 2.579c-.533 1.197 7.796 1.987 11.603 1.763 3.652-.212 6.92-.19 6.92-.19l.52-4.152zM719.95 293.95l-8.461.56s-6.108-.068-8.19.148c-1.487.154-1.503 1.21-1.403 1.587.422 1.605 8.53 1.156 12.334.932 3.655-.214 6.921-.19 6.921-.19l-1.201-3.037zM720.81 297.484l-9.59.58s-7.832-.043-8.232.033c-1.44.273-1.08 1.974-.125 2.306 2.022.703 8.848.489 12.028.301 3.652-.212 7.12-.184 7.12-.184l-1.201-3.036zM723.89 300.735s-10.617.55-15.323 1.132c-1.365.168-1.54.578-1.48 1.19.063.641 2.306.95 2.733.97 3.47.165 5.132.124 8.35-.065 3.655-.214 7.208-.286 7.208-.286l-1.489-2.94z"/>
        <path fill="#FFF" d="M741.673 218.473c26.386 5.053 50.182 83.233 43.118 95.694-7.066 12.46-56.868-7.661-56.868-7.661s1.309-2.006 2.161-8.612c.432-3.333.056-10.983.056-10.983l31.844 4.354s-10.758-10.315-14.954-23.918c-6.685-21.672-15.695-50.855-5.357-48.874"/>
        <path fill="#C8BDD1" d="M761.982 291.662c-.016 0-.033 0-.05-.003l-31.897-3.966a.4.4 0 0 1-.345-.443c.027-.218.207-.381.445-.346l31.896 3.968a.397.397 0 0 1-.049.79M748.129 313.855a.385.385 0 0 1-.132-.024l-21.764-7.656a.396.396 0 1 1 .263-.748l21.765 7.659a.394.394 0 0 1 .24.504.393.393 0 0 1-.372.265M752.386 278.853a.397.397 0 0 1-.392-.334c-.042-.278-4.32-27.874-3.574-38.182a.4.4 0 0 1 .424-.368.398.398 0 0 1 .367.425c-.738 10.22 3.525 37.725 3.567 38a.396.396 0 0 1-.392.46"/>
        <path fill="#C8BDD1" d="M775.333 296.643a.392.392 0 0 1-.19-.05c-6.032-3.294-13.177-4.924-13.248-4.94a.396.396 0 1 1-.005-.773c4.549-1.081 6.166-1.057 6.225-1.065a.397.397 0 0 1-.008.793h-.003c.003-.001-1.202-.008-4.43.681 2.493.681 7.46 2.211 11.85 4.61a.398.398 0 0 1 .158.537.4.4 0 0 1-.349.207M749.246 253.896a.397.397 0 0 1-.389-.476c.054-.267 1.338-6.577 2.232-9.025a.396.396 0 1 1 .744.273c-.873 2.39-2.185 8.845-2.198 8.91a.397.397 0 0 1-.389.318"/>
        <path fill="#FFBD9C" d="M702.06 290.603c-.179 1.18.538 1.661.538 1.661l8.053-1.404-7.351-.99s-1.129 0-1.24.733M703.31 294.551c-.588.056-1.845.336-1.418 1.617l3.122-1.658s-1.274.001-1.704.041"/>
        <path fill="#C48362" d="M727.08 163.647l-.009-.002a.364.364 0 0 1-.274-.433c.057-.259.127-1.019-.241-1.416-.254-.271-.699-.362-1.326-.266a.368.368 0 0 1-.414-.305.365.365 0 0 1 .308-.414c.878-.132 1.538.033 1.966.493.703.762.427 2.016.416 2.068a.365.365 0 0 1-.425.275M724.06 173.083a.365.365 0 0 1-.187-.613c1.71-1.724 2.884-6.255 2.895-6.3.049-.194.252-.321.44-.263.196.051.314.248.263.442-.05.195-1.233 4.769-3.082 6.634a.363.363 0 0 1-.329.1"/>
        <path fill="#AD6A23" d="M536.835 590.118c0 3.731.386 7.112-1.422 7.112-1.807 0-5.124-3.38-5.124-7.112 0-3.733.627-11.14 2.433-11.14 1.809 0 4.113 7.407 4.113 11.14M577.87 590.101c0 3.732 1.574 7.233-.232 7.233-1.81 0-4.795-3.741-4.795-7.47 0-3.732-.055-6.52 1.752-6.52 1.808 0 3.275 3.024 3.275 6.757"/>
        <path fill="#C48362" d="M560.297 575.019s13.454 2.601 15.555 6.082c.725 1.201-5.2 2.482-5.2 2.482l-8.4-1.489-1.955-7.075z"/>
        <path fill="#FFF" d="M560.862 600.999l-12.766-.305a3.031 3.031 0 0 1-2.957-3.103l.744-31.14a3.031 3.031 0 0 1 3.103-2.958l12.765.307a3.033 3.033 0 0 1 2.959 3.103l-.745 31.137a3.033 3.033 0 0 1-3.103 2.959"/>
        <path fill="#8E614B" d="M575.571 580.884s-6.59-4.468-10.908-1.546c-3.758 2.547-4.196 10.962-.613 13.014 2.437 1.395 6.14 1.44 8.261 1.325.88-.047 1.746-.163 2.61-.331l17.379-3.411-16.729-9.051z"/>
        <path fill="#8E614B" d="M567.915 578.346s-18.05 1.054-17.932 2.943c.094 1.457 5.027 1.49 9.269 1.343 4.073-.142 7.709-.029 7.709-.029l.954-4.257zM565.261 583.041s-15.84.21-15.72 2.097c.092 1.457 5.026 1.49 9.269 1.342 4.072-.14 7.708-.028 7.708-.028l-1.257-3.41zM566.124 586.998s-15.84.21-15.72 2.097c.092 1.457 5.026 1.49 9.269 1.342 4.072-.14 7.708-.028 7.708-.028l-1.257-3.41zM569.466 590.698s-15.84.21-15.719 2.096c.09 1.457 5.027 1.49 9.267 1.343 4.073-.141 10.779-.603 10.779-.603l-4.327-2.836z"/>
        <path fill="#C48362" d="M545.653 575.783s-11 1.127-13.214 2.876c-1.307 1.031 5.22 4.134 5.22 4.134l7.921-1.271.073-5.739z"/>
        <path fill="#8E614B" d="M532.438 578.658s7.234-2.942 11.407.183c3.635 2.723 3.668 11.15-.01 13.028-.787.403-1.693.695-2.628.906-3.82.86-9.988.821-13.433-1.034l-7.245-1.643 11.91-11.44z"/>
        <path fill="#8E614B" d="M539.043 578.953c-.45-.581.225-1.58.953-1.494 5.163.603 18.589 2.508 18.417 4.033-.16 1.45-5.091 1.247-9.32.897-4.064-.335-7.7-.397-7.7-.397l-2.35-3.04zM543.417 583s15.792.966 15.58 2.848c-.16 1.452-5.084 1.249-9.308.9-4.058-.337-7.689-.398-7.689-.398l1.417-3.35zM542.018 586.422s15.813.965 15.603 2.845c-.161 1.45-5.091 1.248-9.32.899-4.064-.337-7.7-.397-7.7-.397l1.417-3.347zM538.505 589.959s15.812.964 15.601 2.845c-.16 1.45-5.091 1.248-9.32.897-4.064-.335-9.48-.417-9.48-.417l3.199-3.325z"/>
        <path fill="url(#d)" fill-rule="nonzero" d="M532.645 578.824s-.248 3.285 0 9.585c.315 8.035 2.861 8.757 2.861 8.757l-.016.064-32.877.254c-5.523-.524-11.57-1.308-13.118-6.634-3.745-12.891 7.254-33.908 12.788-46.371 7.009-15.786 24.186-27.135 28.335-29.684.252-.154.46-.35.682-.508.35-.254.699-.508 1.016-.73 1.111-.762 1.936-1.27 2.397-1.524.08-.063.158-.095.207-.127.11-.063.173-.095.173-.095v.016l-.222 4.523-.047.873-4.206 17.234-6.928 27.3-7 16.39 15.955.677zM574.076 579.793s2.19 4.026 2.545 6.348c1.059 6.896 1.016 11.192 1.016 11.192l32.888.15c5.524-.524 11.57-1.308 13.116-6.633 3.748-12.89-8.56-33.631-14.095-46.093-7.01-15.787-28.35-30.367-28.668-30.589-1.111-.762-1.836-1.057-2.297-1.31-.08-.063-.314 3.49-.314 3.49l.048.875c-1.303-2.646.265 3.485 4.703 18.394 2.87 9.645 2.765 19.881 6.64 28.623 1.41 3.18 3.673 7.817 6.791 13.908l-22.373 1.645z"/>
        <path fill="#AD6A23" d="M579.311 513.256a.8.8 0 0 1-.16.159c-.27.254-.554.508-.84.76-4.936 4.255-12.062 8.239-21.997 8.507h-.953c-8.016 0-15.222-2.68-20.537-5.458a53.5 53.5 0 0 1-3.81-2.175c-.143-.08-.27-.174-.397-.254.24-.176.46-.349.684-.509.063.05.127.08.206.127 1 .636 2.127 1.287 3.365 1.936 5.253 2.795 12.443 5.54 20.49 5.54h.936c9.856-.269 16.887-4.286 21.726-8.538.113-.113.24-.206.35-.319.08-.063.144-.127.207-.173.237.11.492.253.73.397M522.612 564.68a.395.395 0 0 1-.384-.494l7.11-28.267a.386.386 0 0 1 .481-.289.394.394 0 0 1 .289.481l-7.112 28.268a.394.394 0 0 1-.384.3M504.696 579.58a.398.398 0 0 1-.395-.355.4.4 0 0 1 .354-.437c12.41-1.29 21.277-1.412 27.902-.379a.397.397 0 0 1-.121.784c-6.556-1.022-15.359-.903-27.698.386l-.042.001"/>
        <path fill="#AD6A23" d="M526.364 549.766a.397.397 0 0 1-.396-.381l-.375-9.227a.395.395 0 0 1 .38-.412c.242.013.404.162.414.381l.374 9.226a.397.397 0 0 1-.38.413h-.017zM590.004 564.207a.396.396 0 0 1-.386-.305l-6.59-27.795a.396.396 0 0 1 .296-.478.391.391 0 0 1 .478.295l6.588 27.794a.396.396 0 0 1-.386.489M574.282 580.357a.397.397 0 0 1-.06-.79c12.065-1.885 23.084-2.25 32.745-1.093a.396.396 0 0 1 .346.442.394.394 0 0 1-.44.347c-9.594-1.15-20.536-.784-32.53 1.089a.423.423 0 0 1-.061.005"/>
        <path fill="#AD6A23" d="M586.774 549.766h-.016a.397.397 0 0 1-.38-.413l.374-9.226c.01-.219.216-.373.413-.38.22.007.39.193.38.41l-.374 9.228a.397.397 0 0 1-.397.38"/>
        <path fill="#C8BDD1" d="M549.762 566.894a.953.953 0 0 0-.95.929l-.025 1.115a.945.945 0 0 0 .929.97l2.944.067c.495.003.96-.403.971-.929l.026-1.115a.938.938 0 0 0-.264-.678.941.941 0 0 0-.665-.294l-2.944-.065h-.022zm2.92 3.874h-.041l-2.943-.066a1.742 1.742 0 0 1-1.705-1.78l.026-1.118c.011-.465.202-.899.538-1.22.338-.322.792-.487 1.244-.483l2.946.065c.96.022 1.725.823 1.703 1.784l-.025 1.115a1.744 1.744 0 0 1-1.743 1.703zM554.078 573.122h-.01l-5.77-.13a.397.397 0 0 1-.387-.407c.005-.217.174-.382.406-.387l5.771.13a.396.396 0 0 1-.01.794"/>
        <path fill="#0461FB" d="M651.64 87.333a4.756 4.756 0 0 0-4.75 4.75c0 2.62 2.131 4.75 4.75 4.75s4.75-2.13 4.75-4.75a4.756 4.756 0 0 0-4.75-4.75m0 11.088a6.344 6.344 0 0 1-6.337-6.337 6.345 6.345 0 0 1 6.337-6.338 6.345 6.345 0 0 1 6.337 6.338 6.344 6.344 0 0 1-6.337 6.337M133.618 424.683c-1.203 0-2.182.979-2.182 2.182 0 1.204.98 2.184 2.182 2.184 1.203 0 2.183-.98 2.183-2.184 0-1.203-.98-2.182-2.183-2.182m0 5.953c-2.079 0-3.77-1.69-3.77-3.771 0-2.08 1.691-3.77 3.77-3.77 2.08 0 3.77 1.69 3.77 3.77s-1.69 3.77-3.77 3.77M806.553 266.939c-1.203 0-2.182.98-2.182 2.182 0 1.205.98 2.184 2.182 2.184 1.205 0 2.184-.98 2.184-2.184 0-1.203-.98-2.182-2.184-2.182m0 5.953c-2.079 0-3.77-1.69-3.77-3.77s1.691-3.77 3.77-3.77c2.08 0 3.771 1.69 3.771 3.77s-1.69 3.77-3.77 3.77M82.484 185.84a3.676 3.676 0 0 0-3.67 3.67 3.676 3.676 0 0 0 3.67 3.671 3.676 3.676 0 0 0 3.671-3.67 3.676 3.676 0 0 0-3.67-3.672m0 8.93a5.264 5.264 0 0 1-5.259-5.259c0-2.9 2.358-5.258 5.258-5.258s5.258 2.359 5.258 5.258c0 2.9-2.358 5.258-5.258 5.258"/>
        <path fill="#D89682" d="M200.371 545.917a.396.396 0 0 1-.376-.522c.8-2.4 4.036-21.575 4.692-29.344a.396.396 0 1 1 .79.065c-.613 7.275-3.833 26.843-4.73 29.53a.397.397 0 0 1-.376.271"/>
        <path fill="#FFBD9C" fill-rule="nonzero" d="M702.073 321.845l-3.356-1.32-19.556-8.073-5.716 18.094 19.959 5.1z"/>
        <path fill="#FFF" d="M655.43 302.581l26.42 10.565c-.497 1.175-6.51 7.635-5.511 18.017l-43.907-9.584c-4.682-6.825-3.287-10.826-2.19-19.03 3.476-25.997 13.584-75.324 39.297-80.482 3.54-.699 7.46 22.927 7.46 22.927l-21.236 55.81-.318.952-.176.508.145.285.015.032z"/>
        <path fill="#E94B7D" fill-rule="nonzero" d="M696.141 321.636c-1.696-.627-3.145-.682-4.141 0s-.242 1.415 0 2.837c.242 1.422.029 2.172.958 2.8.93.63 1.727.313 3.183 0 1.457-.312 1.937-.665 2.665-1.254.727-.59 1.744-.041.818-1.564-.925-1.523-1.786-2.192-3.483-2.819z"/>
        <path fill="#A9A9A9" fill-rule="nonzero" d="M703.142 181.687a18.856 18.856 0 0 1-3.29 0l-1.35 1.8c2.22.79 4.321 1.154 6.303 1.095a12.627 12.627 0 0 0 5.564-1.447l-1.882-2.253c-2.537.44-4.319.71-5.345.805z"/>
    </g>
</svg>
