<svg xmlns="http://www.w3.org/2000/svg" width="1104" height="965" viewBox="0 0 1104 965">
    <defs>
        <linearGradient id="a" x1="98.479%" x2="17.492%" y1="11.654%" y2="96.228%">
            <stop offset="0%" stop-color="#E0EEF8"/>
            <stop offset="100%" stop-color="#B7DEFD"/>
        </linearGradient>
    </defs>
    <g fill="none" fill-rule="nonzero">
        <path fill="#F1F1F1" d="M1002.202-140c14.835 96.913-14.72 164.148-88.666 201.702-110.918 56.333-160.268-33.745-263.977 0-103.71 33.746-65.66 95.933-167.958 136.476-102.297 40.542-125.679-54.042-209.893 8.725-84.214 62.766-6.218 109.956-60.018 186.248-53.8 76.293-153.052 76.293-185.575 145.716-32.524 69.422-11.392 117.982 52.152 173.827 63.544 55.844 192.327 104.512 310.676 104.512 118.35 0 147.687-98.73 280.361-91.483 132.675 7.248 137.247 118.488 244.232 112.105 71.323-4.255 138.352-50.48 201.087-138.675v-826.45L1002.203-140z"/>
        <path fill="url(#a)" d="M991.58 126.298c14.834 96.913-14.721 164.147-88.667 201.702-110.918 56.332-160.268-33.746-263.977 0-103.709 33.746-65.66 95.933-167.957 136.475-102.298 40.543-125.68-54.041-209.893 8.725-84.214 62.767-6.218 109.956-60.019 186.249-53.8 76.293-153.051 76.293-185.575 145.715C-17.03 874.586 4.1 923.147 67.644 978.991c63.544 55.845 192.327 104.512 310.676 104.512 118.35 0 147.688-98.73 280.362-91.482 132.674 7.247 137.246 118.488 244.231 112.105 71.323-4.256 138.352-50.48 201.087-138.675V139l-112.42-12.702z" transform="translate(0 -140)"/>
    </g>
</svg>
